<?xml version="1.0" encoding="UTF-8" standalone="no"?>
<!DOCTYPE svg PUBLIC "-//W3C//DTD SVG 1.1//EN" "http://www.w3.org/Graphics/SVG/1.1/DTD/svg11.dtd">
<!-- Generato da Microsoft Visio, esportazione SVG IBM-Server-FlexSystem.svg Pagina 1 -->
<svg xmlns="http://www.w3.org/2000/svg" xmlns:xlink="http://www.w3.org/1999/xlink" xmlns:ev="http://www.w3.org/2001/xml-events"
		width="60%" height="100%" viewBox="0 0 77.6046 19.9528" xml:space="preserve" color-interpolation-filters="sRGB"
		class="st5">
	<title>IBM-Server-FlexSystem</title>
	<desc>Copyright © IBM Corporation
Created by VSD Grafx Inc.</desc>

	<style type="text/css">
	<![CDATA[
		.st1 {fill:#666666;stroke:#404040;stroke-linecap:round;stroke-linejoin:round;stroke-width:0.75}
		.st2 {fill:#5a5a5a;stroke:#333333;stroke-linecap:round;stroke-linejoin:round;stroke-width:0.75}
		.st3 {fill:#262626;stroke:#404040;stroke-linecap:round;stroke-linejoin:round;stroke-width:0.75}
		.st4 {fill:none;stroke:none;stroke-linecap:round;stroke-linejoin:round;stroke-width:0.72}
		.st5 {fill:none;fill-rule:evenodd;font-size:12px;overflow:visible;stroke-linecap:square;stroke-miterlimit:3}
	]]>
	</style>

	<g>
		<title>Pagina 1</title>
		<g id="group5-1" transform="translate(8.20232,-11.6036)">
			<title>IBM_FlexSystem_x240_Node</title>
			<g id="shape6-2" transform="translate(-8.65292E-011,7.87339)">
				<title>Foglio.6</title>
				<path d="M57.17 18.69 L61.2 18.69 L61.2 4.2 L0 4.2 L0 19.95 L56.81 19.95 L56.81 18.69 L57.17 18.69 Z" class="st1"/>
			</g>
			<g id="shape7-4" transform="translate(-8.63709E-011,7.87339)">
				<title>Foglio.7</title>
				<rect x="0" y="4.20278" width="18.591" height="15.75" class="st2"/>
			</g>
			<g id="shape8-6" transform="translate(-0.828,7.87339)">
				<title>Foglio.8</title>
				<path d="M0.07 19.95 L57.57 19.95 a0.0669019 0.072 -180 0 0 0.0669019 -0.072 L57.64 18.76 a0.0669019 0.072 -180 0
							 0 -0.0669019 -0.072 L0.07 18.69 a0.0669019 0.072 -180 0 0 -0.0669019 0.072 L0 19.88 a0.0669019 0.072
							 -180 0 0 0.0669019 0.072 Z" class="st1"/>
			</g>
			<g id="shape9-8" transform="translate(-8.65292E-011,6.61339)">
				<title>Foglio.9</title>
				<rect x="0" y="19.8448" width="61.2" height="0.108" class="st3"/>
			</g>
			<g id="shape10-10" transform="translate(-0.937612,7.986)">
				<title>Foglio.10</title>
				<rect x="0" y="3.97756" width="62.0675" height="15.9752" class="st4"/>
				<svg viewBox="0 0 827.65 213" height="15.9752" preserveAspectRatio="none" width="62.0675" x="0" y="3.97756">
					<clipPath id="mfid66">
						<rect width="827.65" height="213" id="mfid67"/>
					</clipPath>
					<g clip-path="url(#mfid66)">
						<g>
							<g text-rendering="geometricPrecision">
								<g fill="#4d4d4d">
									<rect x="406.14" y="194.7" width="359.04" height="4.8" stroke="none"/>
									<defs>
										<path id="mfid68"
												d="M406.14,199.5 L765.18,199.5 L765.18,194.7 L406.14,194.7 L406.14,199.5 Z"/>
									</defs>
								</g>
								<g fill="#4d4d4d" stroke-width="1" stroke="#404040" stroke-linecap="round" stroke-linejoin="round">
									<use xlink:href="#mfid68" fill="none"/>
								</g>
							</g>
						</g>
						<!-- GetDC -->
						<!-- Released DC -->
						<defs>
							<path id="mfid69"
									d="M350.27,211.5 L417.95,211.5 C422.45,211.5 426.11,207.74 426.11,203.1 C426.11,203.1 426.11,203.1 426.11,203.1 C426.11,198.46 422.45,194.7 417.95,194.7 L417.95,194.7 L350.27,194.7 C349.74,194.7 349.31,195.14 349.31,195.69 L349.31,210.51 C349.31,211.06 349.74,211.5 350.27,211.5 Z M2.46,211.5 L345.95,211.5 C346.48,211.5 346.91,211.06 346.91,210.51 C346.91,210.51 346.91,210.51 346.91,210.51 L346.91,195.69 C346.91,195.14 346.48,194.7 345.95,194.7 C345.95,194.7 345.95,194.7 345.95,194.7 L2.46,194.7 C1.9298,194.7 1.5,195.14 1.5,195.69 L1.5,195.69 L1.5,210.51 C1.5,211.06 1.9298,211.5 2.46,211.5 Z"/>
						</defs>
						<mask id="mfid70">
							<use xlink:href="#mfid69" fill-rule="evenodd" fill="white" stroke="none"/>
						</mask>
						<mask id="mfid71" fill="white" stroke="none">
							<g>
								<g mask="url(#mfid70)">
									<use xlink:href="#mfid67"/>
								</g>
							</g>
						</mask>
						<linearGradient id="mfid72" gradientUnits="userSpaceOnUse" x1="-0.10417" y1="0.875" x2="44.334" y2="0.875"
								spreadMethod="repeat"
								gradientTransform="matrix(-0.00000085843, 0.044069, -22.692, -0.000000038046, 41.97, -0.099576)">
							<stop offset="0" stop-color="#a6a6a6"/>
							<stop offset="0.5" stop-color="#d9d9d9"/>
							<stop offset="1" stop-color="#a6a6a6"/>
						</linearGradient>
						<g mask="url(#mfid71)">
							<g text-rendering="geometricPrecision">
								<g transform="matrix(9.6, 0, 0, -9.6, 1.5, 211.5)">
									<g fill="url(#mfid72)" stroke-width="0.10417" stroke="#404040" stroke-linecap="round"
											stroke-linejoin="round">
										<rect x="-0.10417" y="-0.10417" width="44.438" height="1.9583" stroke="none"/>
									</g>
								</g>
							</g>
						</g>
						<g>
							<g text-rendering="geometricPrecision">
								<g fill="url(#mfid72)" stroke-width="1" stroke="#a6a6a6" stroke-linecap="round"
										stroke-linejoin="round">
									<use xlink:href="#mfid69" fill="none"/>
								</g>
							</g>
						</g>
						<!-- GetDC -->
						<!-- Released DC -->
						<defs>
							<path id="mfid73"
									d="M335.29,197.64 L335.29,208.56 C335.29,209.04 335.62,209.45 336.08,209.54 L336.08,209.54 L346.18,211.37 C346.32,211.4 346.47,211.35 346.58,211.25 C346.79,211.07 346.9,210.8 346.9,210.51 L346.9,195.69 C346.9,195.4 346.79,195.13 346.58,194.95 C346.47,194.85 346.32,194.8 346.18,194.83 L346.18,194.83 L336.08,196.66 C335.62,196.75 335.29,197.16 335.29,197.64 Z"/>
						</defs>
						<mask id="mfid74">
							<use xlink:href="#mfid73" fill-rule="evenodd" fill="white" stroke="none"/>
						</mask>
						<mask id="mfid75" fill="white" stroke="none">
							<g>
								<g mask="url(#mfid74)">
									<use xlink:href="#mfid67"/>
								</g>
							</g>
						</mask>
						<linearGradient id="mfid76" gradientUnits="userSpaceOnUse" x1="-0.10417" y1="0.86224" x2="1.314"
								y2="0.86224" spreadMethod="repeat"
								gradientTransform="matrix(1, -0, -0, 1, 0.0000000046465, 0.0000000069541)">
							<stop offset="0" stop-color="#bfbfbf"/>
							<stop offset="1" stop-color="#808080"/>
						</linearGradient>
						<g mask="url(#mfid75)">
							<g text-rendering="geometricPrecision">
								<g transform="matrix(9.6, 0, 0, -9.6, 335.29, 211.38)">
									<g fill="url(#mfid76)" stroke-width="0.10417" stroke="#a6a6a6" stroke-linecap="round"
											stroke-linejoin="round">
										<rect x="-0.10417" y="-0.10417" width="1.4182" height="1.9328" stroke="none"/>
									</g>
								</g>
							</g>
						</g>
						<g>
							<g text-rendering="geometricPrecision">
								<g fill="url(#mfid76)" stroke-width="1" stroke="#a6a6a6" stroke-linecap="round"
										stroke-linejoin="round">
									<use xlink:href="#mfid73" fill="none"/>
								</g>
							</g>
						</g>
						<!-- GetDC -->
						<!-- Released DC -->
						<defs>
							<path id="mfid77"
									d="M349.31,199.64 L341.34,199.64 C340.81,199.64 340.38,200.08 340.38,200.63 L340.38,200.63 L340.38,205.57 C340.38,206.12 340.81,206.56 341.34,206.56 L349.31,206.56 L349.31,199.64 Z"/>
						</defs>
						<mask id="mfid78">
							<use xlink:href="#mfid77" fill-rule="evenodd" fill="white" stroke="none"/>
						</mask>
						<mask id="mfid79" fill="white" stroke="none">
							<g>
								<g mask="url(#mfid78)">
									<use xlink:href="#mfid67"/>
								</g>
							</g>
						</mask>
						<linearGradient id="mfid80" gradientUnits="userSpaceOnUse" x1="-0.10417" y1="0.36029" x2="1.0342"
								y2="0.36029" spreadMethod="repeat"
								gradientTransform="matrix(-0.0000010472, 0.81604, -1.2254, -0.000000080207, 0.90651, -0.019163)">
							<stop offset="0" stop-color="#a6a6a6"/>
							<stop offset="0.5" stop-color="#bfbfbf"/>
							<stop offset="1" stop-color="#a6a6a6"/>
						</linearGradient>
						<g mask="url(#mfid79)">
							<g text-rendering="geometricPrecision">
								<g transform="matrix(9.6, 0, 0, -9.6, 340.38, 206.56)">
									<g fill="url(#mfid80)" stroke-width="0.10417" stroke="#a6a6a6" stroke-linecap="round"
											stroke-linejoin="round">
										<rect x="-0.10417" y="-0.10417" width="1.1383" height="0.92892" stroke="none"/>
									</g>
								</g>
							</g>
						</g>
						<g>
							<g text-rendering="geometricPrecision">
								<g fill="url(#mfid80)" stroke-width="1" stroke="#a6a6a6" stroke-linecap="round"
										stroke-linejoin="round">
									<use xlink:href="#mfid77" fill="none"/>
									<defs>
										<path id="mfid81"
												d="M426.77,196.82 L762.77,196.82 L762.77,195.38 L426.77,195.38 L426.77,196.82 Z M426.77,198.82 L762.77,198.82 L762.77,197.38 L426.77,197.38 L426.77,198.82 Z"/>
									</defs>
								</g>
								<g fill="#292929" stroke-width="1" stroke="#a6a6a6" stroke-linecap="round" stroke-linejoin="round">
									<use xlink:href="#mfid81" fill-rule="evenodd" stroke="none"/>
									<defs>
										<path id="mfid82"
												d="M129.38,1.5 L132.34,6.7417 L138.26,6.7417 L141.22,1.5 L129.38,1.5 Z M105.54,1.5 L108.5,6.7417 L114.42,6.7417 L117.38,1.5 L105.54,1.5 Z M81.698,1.5 L84.66,6.7417 L90.583,6.7417 L93.544,1.5 L81.698,1.5 Z M57.859,1.5 L60.821,6.7417 L66.744,6.7417 L69.705,1.5 L57.859,1.5 Z M34.02,1.5 L36.982,6.7417 L42.905,6.7417 L45.866,1.5 L34.02,1.5 Z M248.57,1.5 L251.53,6.7417 L257.46,6.7417 L260.42,1.5 L248.57,1.5 Z M224.73,1.5 L227.69,6.7417 L233.62,6.7417 L236.58,1.5 L224.73,1.5 Z M200.89,1.5 L203.86,6.7417 L209.78,6.7417 L212.74,1.5 L200.89,1.5 Z M177.05,1.5 L180.02,6.7417 L185.94,6.7417 L188.9,1.5 L177.05,1.5 Z M153.22,1.5 L156.18,6.7417 L162.1,6.7417 L165.06,1.5 L153.22,1.5 Z"/>
									</defs>
								</g>
								<g fill="#333333" stroke-width="1" stroke="#a6a6a6" stroke-linecap="round" stroke-linejoin="round">
									<use xlink:href="#mfid82" fill-rule="evenodd" stroke="none"/>
									<defs>
										<path id="mfid83"
												d="M141.3,36.581 L144.26,41.823 L150.18,41.823 L153.14,36.581 L150.18,31.34 L144.26,31.34 L141.3,36.581 Z M141.3,22.549 L144.26,27.791 L150.18,27.791 L153.14,22.549 L150.18,17.307 L144.26,17.307 L141.3,22.549 Z M141.3,8.5163 L144.26,13.758 L150.18,13.758 L153.14,8.5163 L150.18,3.2745 L144.26,3.2745 L141.3,8.5163 Z M129.38,57.621 L132.34,62.863 L138.26,62.863 L141.22,57.621 L138.26,52.379 L132.34,52.379 L129.38,57.621 Z M129.38,43.598 L132.34,48.839 L138.26,48.839 L141.22,43.598 L138.26,38.356 L132.34,38.356 L129.38,43.598 Z M129.38,29.565 L132.34,34.807 L138.26,34.807 L141.22,29.565 L138.26,24.323 L132.34,24.323 L129.38,29.565 Z M129.38,15.533 L132.34,20.774 L138.26,20.774 L141.22,15.533 L138.26,10.291 L132.34,10.291 L129.38,15.533 Z M141.3,64.638 L144.26,69.879 L150.18,69.879 L153.14,64.638 L150.18,59.396 L144.26,59.396 L141.3,64.638 Z M141.3,50.605 L144.26,55.847 L150.18,55.847 L153.14,50.605 L150.18,45.363 L144.26,45.363 L141.3,50.605 Z M105.54,71.654 L108.5,76.896 L114.42,76.896 L117.38,71.654 L114.42,66.412 L108.5,66.412 L105.54,71.654 Z M117.46,78.67 L120.42,83.912 L126.34,83.912 L129.3,78.67 L126.34,73.428 L120.42,73.428 L117.46,78.67 Z M117.46,36.581 L120.42,41.823 L126.34,41.823 L129.3,36.581 L126.34,31.34 L120.42,31.34 L117.46,36.581 Z M117.46,22.549 L120.42,27.791 L126.34,27.791 L129.3,22.549 L126.34,17.307 L120.42,17.307 L117.46,22.549 Z M117.46,8.5163 L120.42,13.758 L126.34,13.758 L129.3,8.5163 L126.34,3.2745 L120.42,3.2745 L117.46,8.5163 Z M105.54,57.621 L108.5,62.863 L114.42,62.863 L117.38,57.621 L114.42,52.379 L108.5,52.379 L105.54,57.621 Z M105.54,43.598 L108.5,48.839 L114.42,48.839 L117.38,43.598 L114.42,38.356 L108.5,38.356 L105.54,43.598 Z M105.54,29.565 L108.5,34.807 L114.42,34.807 L117.38,29.565 L114.42,24.323 L108.5,24.323 L105.54,29.565 Z M105.54,15.533 L108.5,20.774 L114.42,20.774 L117.38,15.533 L114.42,10.291 L108.5,10.291 L105.54,15.533 Z M117.46,64.638 L120.42,69.879 L126.34,69.879 L129.3,64.638 L126.34,59.396 L120.42,59.396 L117.46,64.638 Z M117.46,50.605 L120.42,55.847 L126.34,55.847 L129.3,50.605 L126.34,45.363 L120.42,45.363 L117.46,50.605 Z M129.38,71.654 L132.34,76.896 L138.26,76.896 L141.22,71.654 L138.26,66.412 L132.34,66.412 L129.38,71.654 Z M141.3,78.67 L144.26,83.912 L150.18,83.912 L153.14,78.67 L150.18,73.428 L144.26,73.428 L141.3,78.67 Z M22.1,92.711 L25.062,97.952 L30.985,97.952 L33.947,92.711 L30.985,87.469 L25.062,87.469 L22.1,92.711 Z M34.02,85.686 L36.982,90.928 L42.905,90.928 L45.866,85.686 L42.905,80.445 L36.982,80.445 L34.02,85.686 Z M45.94,92.711 L48.901,97.952 L54.824,97.952 L57.786,92.711 L54.824,87.469 L48.901,87.469 L45.94,92.711 Z M57.859,85.686 L60.821,90.928 L66.744,90.928 L69.705,85.686 L66.744,80.445 L60.821,80.445 L57.859,85.686 Z M69.779,92.711 L72.74,97.952 L78.663,97.952 L81.625,92.711 L78.663,87.469 L72.74,87.469 L69.779,92.711 Z M81.698,85.686 L84.66,90.928 L90.583,90.928 L93.544,85.686 L90.583,80.445 L84.66,80.445 L81.698,85.686 Z M93.618,92.711 L96.579,97.952 L102.5,97.952 L105.46,92.711 L102.5,87.469 L96.579,87.469 L93.618,92.711 Z M93.618,36.581 L96.579,41.823 L102.5,41.823 L105.46,36.581 L102.5,31.34 L96.579,31.34 L93.618,36.581 Z M93.618,22.549 L96.579,27.791 L102.5,27.791 L105.46,22.549 L102.5,17.307 L96.579,17.307 L93.618,22.549 Z M93.618,8.5163 L96.579,13.758 L102.5,13.758 L105.46,8.5163 L102.5,3.2745 L96.579,3.2745 L93.618,8.5163 Z M81.698,57.621 L84.66,62.863 L90.583,62.863 L93.544,57.621 L90.583,52.379 L84.66,52.379 L81.698,57.621 Z M81.698,43.598 L84.66,48.839 L90.583,48.839 L93.544,43.598 L90.583,38.356 L84.66,38.356 L81.698,43.598 Z M81.698,29.565 L84.66,34.807 L90.583,34.807 L93.544,29.565 L90.583,24.323 L84.66,24.323 L81.698,29.565 Z M81.698,15.533 L84.66,20.774 L90.583,20.774 L93.544,15.533 L90.583,10.291 L84.66,10.291 L81.698,15.533 Z M93.618,64.638 L96.579,69.879 L102.5,69.879 L105.46,64.638 L102.5,59.396 L96.579,59.396 L93.618,64.638 Z M93.618,50.605 L96.579,55.847 L102.5,55.847 L105.46,50.605 L102.5,45.363 L96.579,45.363 L93.618,50.605 Z M22.1,78.67 L25.062,83.912 L30.985,83.912 L33.947,78.67 L30.985,73.428 L25.062,73.428 L22.1,78.67 Z M34.02,71.654 L36.982,76.896 L42.905,76.896 L45.866,71.654 L42.905,66.412 L36.982,66.412 L34.02,71.654 Z M45.94,78.67 L48.901,83.912 L54.824,83.912 L57.786,78.67 L54.824,73.428 L48.901,73.428 L45.94,78.67 Z M57.859,71.654 L60.821,76.896 L66.744,76.896 L69.705,71.654 L66.744,66.412 L60.821,66.412 L57.859,71.654 Z M69.779,78.67 L72.74,83.912 L78.663,83.912 L81.625,78.67 L78.663,73.428 L72.74,73.428 L69.779,78.67 Z M57.859,29.565 L60.821,34.807 L66.744,34.807 L69.705,29.565 L66.744,24.323 L60.821,24.323 L57.859,29.565 Z M57.859,15.533 L60.821,20.774 L66.744,20.774 L69.705,15.533 L66.744,10.291 L60.821,10.291 L57.859,15.533 Z M69.779,36.581 L72.74,41.823 L78.663,41.823 L81.625,36.581 L78.663,31.34 L72.74,31.34 L69.779,36.581 Z M69.779,22.549 L72.74,27.791 L78.663,27.791 L81.625,22.549 L78.663,17.307 L72.74,17.307 L69.779,22.549 Z M69.779,8.5163 L72.74,13.758 L78.663,13.758 L81.625,8.5163 L78.663,3.2745 L72.74,3.2745 L69.779,8.5163 Z M22.1,64.638 L25.062,69.879 L30.985,69.879 L33.947,64.638 L30.985,59.396 L25.062,59.396 L22.1,64.638 Z M22.1,50.605 L25.062,55.847 L30.985,55.847 L33.947,50.605 L30.985,45.363 L25.062,45.363 L22.1,50.605 Z M34.02,57.621 L36.982,62.863 L42.905,62.863 L45.866,57.621 L42.905,52.379 L36.982,52.379 L34.02,57.621 Z M34.02,43.598 L36.982,48.839 L42.905,48.839 L45.866,43.598 L42.905,38.356 L36.982,38.356 L34.02,43.598 Z M45.94,64.638 L48.901,69.879 L54.824,69.879 L57.786,64.638 L54.824,59.396 L48.901,59.396 L45.94,64.638 Z M45.94,50.605 L48.901,55.847 L54.824,55.847 L57.786,50.605 L54.824,45.363 L48.901,45.363 L45.94,50.605 Z M45.94,22.549 L48.901,27.791 L54.824,27.791 L57.786,22.549 L54.824,17.307 L48.901,17.307 L45.94,22.549 Z M45.94,8.5163 L48.901,13.758 L54.824,13.758 L57.786,8.5163 L54.824,3.2745 L48.901,3.2745 L45.94,8.5163 Z M22.1,36.581 L25.062,41.823 L30.985,41.823 L33.947,36.581 L30.985,31.34 L25.062,31.34 L22.1,36.581 Z M34.02,29.565 L36.982,34.807 L42.905,34.807 L45.866,29.565 L42.905,24.323 L36.982,24.323 L34.02,29.565 Z M22.1,22.549 L25.062,27.791 L30.985,27.791 L33.947,22.549 L30.985,17.307 L25.062,17.307 L22.1,22.549 Z M22.1,8.5163 L25.062,13.758 L30.985,13.758 L33.947,8.5163 L30.985,3.2745 L25.062,3.2745 L22.1,8.5163 Z M34.02,15.533 L36.982,20.774 L42.905,20.774 L45.866,15.533 L42.905,10.291 L36.982,10.291 L34.02,15.533 Z M45.94,36.581 L48.901,41.823 L54.824,41.823 L57.786,36.581 L54.824,31.34 L48.901,31.34 L45.94,36.581 Z M57.859,57.621 L60.821,62.863 L66.744,62.863 L69.705,57.621 L66.744,52.379 L60.821,52.379 L57.859,57.621 Z M57.859,43.598 L60.821,48.839 L66.744,48.839 L69.705,43.598 L66.744,38.356 L60.821,38.356 L57.859,43.598 Z M69.779,64.638 L72.74,69.879 L78.663,69.879 L81.625,64.638 L78.663,59.396 L72.74,59.396 L69.779,64.638 Z M69.779,50.605 L72.74,55.847 L78.663,55.847 L81.625,50.605 L78.663,45.363 L72.74,45.363 L69.779,50.605 Z M81.698,71.654 L84.66,76.896 L90.583,76.896 L93.544,71.654 L90.583,66.412 L84.66,66.412 L81.698,71.654 Z M93.618,78.67 L96.579,83.912 L102.5,83.912 L105.46,78.67 L102.5,73.428 L96.579,73.428 L93.618,78.67 Z M105.54,85.686 L108.5,90.928 L114.42,90.928 L117.38,85.686 L114.42,80.445 L108.5,80.445 L105.54,85.686 Z M117.46,92.711 L120.42,97.952 L126.34,97.952 L129.3,92.711 L126.34,87.469 L120.42,87.469 L117.46,92.711 Z M129.38,85.686 L132.34,90.928 L138.26,90.928 L141.22,85.686 L138.26,80.445 L132.34,80.445 L129.38,85.686 Z M141.3,92.711 L144.26,97.952 L150.18,97.952 L153.14,92.711 L150.18,87.469 L144.26,87.469 L141.3,92.711 Z M117.46,106.74 L120.42,111.98 L126.34,111.98 L129.3,106.74 L126.34,101.5 L120.42,101.5 L117.46,106.74 Z M129.38,99.727 L132.34,104.97 L138.26,104.97 L141.22,99.727 L138.26,94.485 L132.34,94.485 L129.38,99.727 Z M141.3,106.74 L144.26,111.98 L150.18,111.98 L153.14,106.74 L150.18,101.5 L144.26,101.5 L141.3,106.74 Z M93.618,120.78 L96.579,126.03 L102.5,126.03 L105.46,120.78 L102.5,115.54 L96.579,115.54 L93.618,120.78 Z M105.54,113.76 L108.5,119 L114.42,119 L117.38,113.76 L114.42,108.52 L108.5,108.52 L105.54,113.76 Z M93.618,106.74 L96.579,111.98 L102.5,111.98 L105.46,106.74 L102.5,101.5 L96.579,101.5 L93.618,106.74 Z M105.54,99.727 L108.5,104.97 L114.42,104.97 L117.38,99.727 L114.42,94.485 L108.5,94.485 L105.54,99.727 Z M117.46,120.78 L120.42,126.03 L126.34,126.03 L129.3,120.78 L126.34,115.54 L120.42,115.54 L117.46,120.78 Z M129.38,113.76 L132.34,119 L138.26,119 L141.22,113.76 L138.26,108.52 L132.34,108.52 L129.38,113.76 Z M141.3,120.78 L144.26,126.03 L150.18,126.03 L153.14,120.78 L150.18,115.54 L144.26,115.54 L141.3,120.78 Z M69.779,106.74 L72.74,111.98 L78.663,111.98 L81.625,106.74 L78.663,101.5 L72.74,101.5 L69.779,106.74 Z M81.698,99.727 L84.66,104.97 L90.583,104.97 L93.544,99.727 L90.583,94.485 L84.66,94.485 L81.698,99.727 Z M22.1,120.78 L25.062,126.03 L30.985,126.03 L33.947,120.78 L30.985,115.54 L25.062,115.54 L22.1,120.78 Z M34.02,113.76 L36.982,119 L42.905,119 L45.866,113.76 L42.905,108.52 L36.982,108.52 L34.02,113.76 Z M45.94,120.78 L48.901,126.03 L54.824,126.03 L57.786,120.78 L54.824,115.54 L48.901,115.54 L45.94,120.78 Z M22.1,106.74 L25.062,111.98 L30.985,111.98 L33.947,106.74 L30.985,101.5 L25.062,101.5 L22.1,106.74 Z M34.02,99.727 L36.982,104.97 L42.905,104.97 L45.866,99.727 L42.905,94.485 L36.982,94.485 L34.02,99.727 Z M45.94,106.74 L48.901,111.98 L54.824,111.98 L57.786,106.74 L54.824,101.5 L48.901,101.5 L45.94,106.74 Z M57.859,99.727 L60.821,104.97 L66.744,104.97 L69.705,99.727 L66.744,94.485 L60.821,94.485 L57.859,99.727 Z M57.859,113.76 L60.821,119 L66.744,119 L69.705,113.76 L66.744,108.52 L60.821,108.52 L57.859,113.76 Z M69.779,120.78 L72.74,126.03 L78.663,126.03 L81.625,120.78 L78.663,115.54 L72.74,115.54 L69.779,120.78 Z M81.698,113.76 L84.66,119 L90.583,119 L93.544,113.76 L90.583,108.52 L84.66,108.52 L81.698,113.76 Z M248.57,29.565 L251.53,34.807 L257.46,34.807 L260.42,29.565 L257.46,24.323 L251.53,24.323 L248.57,29.565 Z M248.57,15.533 L251.53,20.774 L257.46,20.774 L260.42,15.533 L257.46,10.291 L251.53,10.291 L248.57,15.533 Z M236.65,64.638 L239.61,69.879 L245.54,69.879 L248.5,64.638 L245.54,59.396 L239.61,59.396 L236.65,64.638 Z M236.65,50.605 L239.61,55.847 L245.54,55.847 L248.5,50.605 L245.54,45.363 L239.61,45.363 L236.65,50.605 Z M236.65,36.581 L239.61,41.823 L245.54,41.823 L248.5,36.581 L245.54,31.34 L239.61,31.34 L236.65,36.581 Z M236.65,22.549 L239.61,27.791 L245.54,27.791 L248.5,22.549 L245.54,17.307 L239.61,17.307 L236.65,22.549 Z M236.65,8.5163 L239.61,13.758 L245.54,13.758 L248.5,8.5163 L245.54,3.2745 L239.61,3.2745 L236.65,8.5163 Z M248.57,71.654 L251.53,76.896 L257.46,76.896 L260.42,71.654 L257.46,66.412 L251.53,66.412 L248.57,71.654 Z M248.57,57.621 L251.53,62.863 L257.46,62.863 L260.42,57.621 L257.46,52.379 L251.53,52.379 L248.57,57.621 Z M248.57,43.598 L251.53,48.839 L257.46,48.839 L260.42,43.598 L257.46,38.356 L251.53,38.356 L248.57,43.598 Z M224.73,99.727 L227.69,104.97 L233.62,104.97 L236.58,99.727 L233.62,94.485 L227.69,94.485 L224.73,99.727 Z M224.73,85.686 L227.69,90.928 L233.62,90.928 L236.58,85.686 L233.62,80.445 L227.69,80.445 L224.73,85.686 Z M212.81,120.78 L215.78,126.03 L221.7,126.03 L224.66,120.78 L221.7,115.54 L215.78,115.54 L212.81,120.78 Z M212.81,106.74 L215.78,111.98 L221.7,111.98 L224.66,106.74 L221.7,101.5 L215.78,101.5 L212.81,106.74 Z M212.81,92.711 L215.78,97.952 L221.7,97.952 L224.66,92.711 L221.7,87.469 L215.78,87.469 L212.81,92.711 Z M212.81,78.67 L215.78,83.912 L221.7,83.912 L224.66,78.67 L221.7,73.428 L215.78,73.428 L212.81,78.67 Z M224.73,113.76 L227.69,119 L233.62,119 L236.58,113.76 L233.62,108.52 L227.69,108.52 L224.73,113.76 Z M224.73,43.598 L227.69,48.839 L233.62,48.839 L236.58,43.598 L233.62,38.356 L227.69,38.356 L224.73,43.598 Z M224.73,29.565 L227.69,34.807 L233.62,34.807 L236.58,29.565 L233.62,24.323 L227.69,24.323 L224.73,29.565 Z M224.73,15.533 L227.69,20.774 L233.62,20.774 L236.58,15.533 L233.62,10.291 L227.69,10.291 L224.73,15.533 Z M212.81,64.638 L215.78,69.879 L221.7,69.879 L224.66,64.638 L221.7,59.396 L215.78,59.396 L212.81,64.638 Z M212.81,50.605 L215.78,55.847 L221.7,55.847 L224.66,50.605 L221.7,45.363 L215.78,45.363 L212.81,50.605 Z M212.81,36.581 L215.78,41.823 L221.7,41.823 L224.66,36.581 L221.7,31.34 L215.78,31.34 L212.81,36.581 Z M212.81,22.549 L215.78,27.791 L221.7,27.791 L224.66,22.549 L221.7,17.307 L215.78,17.307 L212.81,22.549 Z M212.81,8.5163 L215.78,13.758 L221.7,13.758 L224.66,8.5163 L221.7,3.2745 L215.78,3.2745 L212.81,8.5163 Z M224.73,71.654 L227.69,76.896 L233.62,76.896 L236.58,71.654 L233.62,66.412 L227.69,66.412 L224.73,71.654 Z M224.73,57.621 L227.69,62.863 L233.62,62.863 L236.58,57.621 L233.62,52.379 L227.69,52.379 L224.73,57.621 Z M248.57,99.727 L251.53,104.97 L257.46,104.97 L260.42,99.727 L257.46,94.485 L251.53,94.485 L248.57,99.727 Z M248.57,85.686 L251.53,90.928 L257.46,90.928 L260.42,85.686 L257.46,80.445 L251.53,80.445 L248.57,85.686 Z M236.65,120.78 L239.61,126.03 L245.54,126.03 L248.5,120.78 L245.54,115.54 L239.61,115.54 L236.65,120.78 Z M236.65,106.74 L239.61,111.98 L245.54,111.98 L248.5,106.74 L245.54,101.5 L239.61,101.5 L236.65,106.74 Z M236.65,92.711 L239.61,97.952 L245.54,97.952 L248.5,92.711 L245.54,87.469 L239.61,87.469 L236.65,92.711 Z M236.65,78.67 L239.61,83.912 L245.54,83.912 L248.5,78.67 L245.54,73.428 L239.61,73.428 L236.65,78.67 Z M248.57,113.76 L251.53,119 L257.46,119 L260.42,113.76 L257.46,108.52 L251.53,108.52 L248.57,113.76 Z M200.89,29.565 L203.86,34.807 L209.78,34.807 L212.74,29.565 L209.78,24.323 L203.86,24.323 L200.89,29.565 Z M200.89,15.533 L203.86,20.774 L209.78,20.774 L212.74,15.533 L209.78,10.291 L203.86,10.291 L200.89,15.533 Z M188.97,50.605 L191.94,55.847 L197.86,55.847 L200.82,50.605 L197.86,45.363 L191.94,45.363 L188.97,50.605 Z M188.97,36.581 L191.94,41.823 L197.86,41.823 L200.82,36.581 L197.86,31.34 L191.94,31.34 L188.97,36.581 Z M188.97,22.549 L191.94,27.791 L197.86,27.791 L200.82,22.549 L197.86,17.307 L191.94,17.307 L188.97,22.549 Z M188.97,8.5163 L191.94,13.758 L197.86,13.758 L200.82,8.5163 L197.86,3.2745 L191.94,3.2745 L188.97,8.5163 Z M200.89,57.621 L203.86,62.863 L209.78,62.863 L212.74,57.621 L209.78,52.379 L203.86,52.379 L200.89,57.621 Z M200.89,43.598 L203.86,48.839 L209.78,48.839 L212.74,43.598 L209.78,38.356 L203.86,38.356 L200.89,43.598 Z M177.05,71.654 L180.02,76.896 L185.94,76.896 L188.9,71.654 L185.94,66.412 L180.02,66.412 L177.05,71.654 Z M177.05,57.621 L180.02,62.863 L185.94,62.863 L188.9,57.621 L185.94,52.379 L180.02,52.379 L177.05,57.621 Z M177.05,43.598 L180.02,48.839 L185.94,48.839 L188.9,43.598 L185.94,38.356 L180.02,38.356 L177.05,43.598 Z M177.05,29.565 L180.02,34.807 L185.94,34.807 L188.9,29.565 L185.94,24.323 L180.02,24.323 L177.05,29.565 Z M177.05,15.533 L180.02,20.774 L185.94,20.774 L188.9,15.533 L185.94,10.291 L180.02,10.291 L177.05,15.533 Z M188.97,78.67 L191.94,83.912 L197.86,83.912 L200.82,78.67 L197.86,73.428 L191.94,73.428 L188.97,78.67 Z M188.97,64.638 L191.94,69.879 L197.86,69.879 L200.82,64.638 L197.86,59.396 L191.94,59.396 L188.97,64.638 Z M200.89,71.654 L203.86,76.896 L209.78,76.896 L212.74,71.654 L209.78,66.412 L203.86,66.412 L200.89,71.654 Z M165.14,106.74 L168.1,111.98 L174.02,111.98 L176.98,106.74 L174.02,101.5 L168.1,101.5 L165.14,106.74 Z M165.14,92.711 L168.1,97.952 L174.02,97.952 L176.98,92.711 L174.02,87.469 L168.1,87.469 L165.14,92.711 Z M153.22,99.727 L156.18,104.97 L162.1,104.97 L165.06,99.727 L162.1,94.485 L156.18,94.485 L153.22,99.727 Z M153.22,85.686 L156.18,90.928 L162.1,90.928 L165.06,85.686 L162.1,80.445 L156.18,80.445 L153.22,85.686 Z M153.22,113.76 L156.18,119 L162.1,119 L165.06,113.76 L162.1,108.52 L156.18,108.52 L153.22,113.76 Z M165.14,120.78 L168.1,126.03 L174.02,126.03 L176.98,120.78 L174.02,115.54 L168.1,115.54 L165.14,120.78 Z M165.14,50.605 L168.1,55.847 L174.02,55.847 L176.98,50.605 L174.02,45.363 L168.1,45.363 L165.14,50.605 Z M165.14,36.581 L168.1,41.823 L174.02,41.823 L176.98,36.581 L174.02,31.34 L168.1,31.34 L165.14,36.581 Z M165.14,22.549 L168.1,27.791 L174.02,27.791 L176.98,22.549 L174.02,17.307 L168.1,17.307 L165.14,22.549 Z M165.14,8.5163 L168.1,13.758 L174.02,13.758 L176.98,8.5163 L174.02,3.2745 L168.1,3.2745 L165.14,8.5163 Z M153.22,71.654 L156.18,76.896 L162.1,76.896 L165.06,71.654 L162.1,66.412 L156.18,66.412 L153.22,71.654 Z M153.22,57.621 L156.18,62.863 L162.1,62.863 L165.06,57.621 L162.1,52.379 L156.18,52.379 L153.22,57.621 Z M153.22,43.598 L156.18,48.839 L162.1,48.839 L165.06,43.598 L162.1,38.356 L156.18,38.356 L153.22,43.598 Z M153.22,29.565 L156.18,34.807 L162.1,34.807 L165.06,29.565 L162.1,24.323 L156.18,24.323 L153.22,29.565 Z M153.22,15.533 L156.18,20.774 L162.1,20.774 L165.06,15.533 L162.1,10.291 L156.18,10.291 L153.22,15.533 Z M165.14,78.67 L168.1,83.912 L174.02,83.912 L176.98,78.67 L174.02,73.428 L168.1,73.428 L165.14,78.67 Z M165.14,64.638 L168.1,69.879 L174.02,69.879 L176.98,64.638 L174.02,59.396 L168.1,59.396 L165.14,64.638 Z M188.97,92.711 L191.94,97.952 L197.86,97.952 L200.82,92.711 L197.86,87.469 L191.94,87.469 L188.97,92.711 Z M200.89,99.727 L203.86,104.97 L209.78,104.97 L212.74,99.727 L209.78,94.485 L203.86,94.485 L200.89,99.727 Z M200.89,85.686 L203.86,90.928 L209.78,90.928 L212.74,85.686 L209.78,80.445 L203.86,80.445 L200.89,85.686 Z M177.05,113.76 L180.02,119 L185.94,119 L188.9,113.76 L185.94,108.52 L180.02,108.52 L177.05,113.76 Z M177.05,99.727 L180.02,104.97 L185.94,104.97 L188.9,99.727 L185.94,94.485 L180.02,94.485 L177.05,99.727 Z M177.05,85.686 L180.02,90.928 L185.94,90.928 L188.9,85.686 L185.94,80.445 L180.02,80.445 L177.05,85.686 Z M200.89,113.76 L203.86,119 L209.78,119 L212.74,113.76 L209.78,108.52 L203.86,108.52 L200.89,113.76 Z M188.97,120.78 L191.94,126.03 L197.86,126.03 L200.82,120.78 L197.86,115.54 L191.94,115.54 L188.97,120.78 Z M188.97,106.74 L191.94,111.98 L197.86,111.98 L200.82,106.74 L197.86,101.5 L191.94,101.5 L188.97,106.74 Z"/>
									</defs>
								</g>
								<g fill="#1a1a1a" stroke-width="1" stroke="#a6a6a6" stroke-linecap="round" stroke-linejoin="round">
									<use xlink:href="#mfid83" fill-rule="evenodd" stroke="none"/>
									<defs>
										<path id="mfid84"
												d="M769.5,190.86 L825.18,190.86 C825.71,190.86 826.14,190.43 826.14,189.9 C826.14,189.9 826.14,189.9 826.14,189.9 L826.14,134.22 C826.14,133.69 825.71,133.26 825.18,133.26 C825.18,133.26 825.18,133.26 825.18,133.26 L769.5,133.26 C768.97,133.26 768.54,133.69 768.54,134.22 L768.54,189.9 C768.54,190.43 768.97,190.86 769.5,190.86 Z"/>
									</defs>
								</g>
								<g fill="#595959" stroke-width="1" stroke="#a6a6a6" stroke-linecap="round" stroke-linejoin="round">
									<use xlink:href="#mfid84" fill-rule="evenodd" stroke="none"/>
								</g>
								<g fill="#595959" stroke-width="1" stroke="#4d4d4d" stroke-linecap="round" stroke-linejoin="round">
									<use xlink:href="#mfid84" fill="none"/>
									<defs>
										<path id="mfid85"
												d="M572.22,190.82 L762.3,190.82 C762.83,190.82 763.26,190.39 763.26,189.86 C763.26,189.86 763.26,189.86 763.26,189.86 L763.26,134.18 C763.26,133.65 762.83,133.22 762.3,133.22 C762.3,133.22 762.3,133.22 762.3,133.22 L572.22,133.22 C571.69,133.22 571.26,133.65 571.26,134.18 L571.26,134.18 L571.26,189.86 C571.26,190.39 571.69,190.82 572.22,190.82 Z"/>
									</defs>
									<use xlink:href="#mfid85" fill-rule="evenodd" stroke="none"/>
								</g>
								<g fill="#595959" stroke-width="1" stroke="#262626" stroke-linecap="round" stroke-linejoin="round">
									<use xlink:href="#mfid85" fill="none"/>
									<defs>
										<path id="mfid86"
												d="M605.58,182.9 L628.62,182.9 C640.15,182.9 649.5,173.55 649.5,162.02 C649.5,162.02 649.5,162.02 649.5,162.02 C649.5,150.49 640.15,141.14 628.62,141.14 C628.62,141.14 628.62,141.14 628.62,141.14 L628.62,141.14 L605.58,141.14 C594.05,141.14 584.7,150.49 584.7,162.02 C584.7,173.55 594.05,182.9 605.58,182.9 Z"/>
									</defs>
								</g>
								<g fill="#5f5f5f" stroke-width="1" stroke="#262626" stroke-linecap="round" stroke-linejoin="round">
									<use xlink:href="#mfid86" fill-rule="evenodd" stroke="none"/>
								</g>
								<g fill="#5f5f5f" stroke-width="1" stroke="#404040" stroke-linecap="round" stroke-linejoin="round">
									<use xlink:href="#mfid86" fill="none"/>
								</g>
							</g>
						</g>
						<!-- GetDC -->
						<!-- Released DC -->
						<defs>
							<path id="mfid87"
									d="M605.58,178.1 L628.62,178.1 C637.5,178.1 644.7,170.9 644.7,162.02 C644.7,162.02 644.7,162.02 644.7,162.02 C644.7,153.14 637.5,145.94 628.62,145.94 L605.58,145.94 C596.7,145.94 589.5,153.14 589.5,162.02 C589.5,170.9 596.7,178.1 605.58,178.1 Z"/>
						</defs>
						<mask id="mfid88">
							<use xlink:href="#mfid87" fill-rule="evenodd" fill="white" stroke="none"/>
						</mask>
						<mask id="mfid89" fill="white" stroke="none">
							<g>
								<g mask="url(#mfid88)">
									<use xlink:href="#mfid67"/>
								</g>
							</g>
						</mask>
						<linearGradient id="mfid90" gradientUnits="userSpaceOnUse" x1="-0.10417" y1="1.675" x2="5.8541" y2="1.675"
								spreadMethod="repeat"
								gradientTransform="matrix(-0.00000080029, 0.59721, -1.6745, -0.000000020938, 5.6797, -0.041958)">
							<stop offset="0" stop-color="#595959"/>
							<stop offset="1" stop-color="#333333"/>
						</linearGradient>
						<g mask="url(#mfid89)">
							<g text-rendering="geometricPrecision">
								<g transform="matrix(9.6, 0, 0, -9.6, 589.5, 178.1)">
									<g fill="url(#mfid90)" stroke-width="0.10417" stroke="#404040" stroke-linecap="round"
											stroke-linejoin="round">
										<rect x="-0.10417" y="-0.10417" width="5.9583" height="3.5583" stroke="none"/>
									</g>
								</g>
							</g>
						</g>
						<g>
							<g text-rendering="geometricPrecision">
								<g fill="url(#mfid90)" stroke-width="1" stroke="#4d4d4d" stroke-linecap="round"
										stroke-linejoin="round">
									<use xlink:href="#mfid87" fill="none"/>
									<defs>
										<path id="mfid91"
												d="M605.58,171.38 L628.62,171.38 C633.79,171.38 637.98,167.19 637.98,162.02 C637.98,162.02 637.98,162.02 637.98,162.02 C637.98,156.85 633.79,152.66 628.62,152.66 C628.62,152.66 628.62,152.66 628.62,152.66 L605.58,152.66 C600.41,152.66 596.22,156.85 596.22,162.02 C596.22,167.19 600.41,171.38 605.58,171.38 Z"/>
									</defs>
								</g>
								<g fill="#262626" stroke-width="1" stroke="#4d4d4d" stroke-linecap="round" stroke-linejoin="round">
									<use xlink:href="#mfid91" fill-rule="evenodd" stroke="none"/>
								</g>
								<g fill="#262626" stroke-width="1" stroke="#262626" stroke-linecap="round" stroke-linejoin="round">
									<use xlink:href="#mfid91" fill="none"/>
									<defs>
										<path id="mfid92"
												d="M605.58,170.42 L628.62,170.42 C633.26,170.42 637.02,166.66 637.02,162.02 C637.02,162.02 637.02,162.02 637.02,162.02 C637.02,157.38 633.26,153.62 628.62,153.62 L628.62,153.62 L605.58,153.62 C600.94,153.62 597.18,157.38 597.18,162.02 C597.18,166.66 600.94,170.42 605.58,170.42 Z"/>
									</defs>
								</g>
								<g fill="#4d4d4d" stroke-width="1" stroke="#262626" stroke-linecap="round" stroke-linejoin="round">
									<use xlink:href="#mfid92" fill-rule="evenodd" stroke="none"/>
								</g>
								<g fill="#4d4d4d" stroke-width="1" stroke="#4d4d4d" stroke-linecap="round" stroke-linejoin="round">
									<use xlink:href="#mfid92" fill="none"/>
									<defs>
										<path id="mfid93"
												d="M619.72,158.14 C621.98,159.59 622.65,162.6 621.2,164.86 C619.76,167.13 616.75,167.79 614.48,166.35 C612.22,164.9 611.55,161.9 613,159.63 C613.38,159.03 613.89,158.53 614.48,158.14 C614.63,158.05 614.71,157.9 614.71,157.73 L614.71,157.43 C614.71,157.16 614.49,156.94 614.22,156.94 C614.13,156.94 614.04,156.96 613.97,157.01 C611.07,158.74 610.13,162.49 611.86,165.38 C613.59,168.27 617.34,169.22 620.24,167.49 C623.13,165.75 624.07,162.01 622.34,159.11 C621.75,158.12 620.88,157.32 619.85,156.79 C619.73,156.73 619.58,156.78 619.52,156.9 C619.5,156.94 619.49,156.98 619.49,157.01 L619.49,157.73 C619.49,157.9 619.58,158.05 619.72,158.14 Z M617.7,159.38 L617.7,156.13 C617.7,155.88 617.48,155.69 617.2,155.69 L617,155.69 C616.73,155.69 616.5,155.88 616.5,156.13 L616.5,162.87 C616.5,163.11 616.73,163.31 617,163.31 L617,163.31 L617.2,163.31 C617.48,163.31 617.7,163.11 617.7,162.87 C617.7,162.87 617.7,162.87 617.7,162.87 L617.7,159.38 Z"/>
									</defs>
								</g>
								<g fill="#737373" stroke-width="1" stroke="#4d4d4d" stroke-linecap="round" stroke-linejoin="round">
									<use xlink:href="#mfid93" fill-rule="evenodd" stroke="none"/>
								</g>
								<g transform="matrix(96, 0.000000043001, -0.00000043001, 96, 516.61, 157.67)">
									<g fill="#f2f2f2" stroke-width="0.010417" stroke="#4d4d4d" stroke-linecap="round"
											stroke-linejoin="round">
										<g font-size="0.18054" font-family="ARIAL">
											<text stroke="none" xml:space="preserve" x="0.028889" y="0.30935">x</text>
											<text stroke="none" xml:space="preserve" x="0.11916 0.21957 0.31998"
													y="0.30935 0.30935 0.30935">240</text>
											<defs>
												<path id="mfid94"
														d="M30.389,160.24 L76.611,160.24 C77.102,160.24 77.5,159.88 77.5,159.44 C77.5,159.44 77.5,159.44 77.5,159.44 L77.5,141.84 C77.5,141.39 77.102,141.04 76.611,141.04 L30.389,141.04 C29.898,141.04 29.5,141.39 29.5,141.84 L29.5,159.44 C29.5,159.88 29.898,160.24 30.389,160.24 Z"/>
											</defs>
										</g>
									</g>
								</g>
								<g fill="#a6a6a6" stroke-width="1" stroke="#4d4d4d" stroke-linecap="round" stroke-linejoin="round">
									<use xlink:href="#mfid94" fill-rule="evenodd" stroke="none"/>
								</g>
								<g fill="#a6a6a6" stroke-width="1" stroke="#595959" stroke-linecap="round" stroke-linejoin="round">
									<use xlink:href="#mfid94" fill="none"/>
									<defs>
										<path id="mfid95"
												d="M48.212,142.19 L31.842,142.19 C31.344,142.19 30.94,142.49 30.94,142.87 L30.94,158.4 C30.94,158.78 31.344,159.08 31.842,159.08 L75.157,159.08 C75.656,159.08 76.06,158.78 76.06,158.4 C76.06,158.4 76.06,158.4 76.06,158.4 L76.06,142.87 C76.06,142.49 75.656,142.19 75.157,142.19 C75.157,142.19 75.157,142.19 75.157,142.19 L48.212,142.19 Z"/>
									</defs>
								</g>
								<g fill="#333333" stroke-width="1" stroke="#595959" stroke-linecap="round" stroke-linejoin="round">
									<use xlink:href="#mfid95" fill-rule="evenodd" stroke="none"/>
								</g>
								<g fill="#666666" stroke-width="1" stroke="#595959" stroke-linecap="round" stroke-linejoin="round">
									<rect x="33.799" y="145.01" width="39.48" height="4.7513" stroke="none"/>
									<defs>
										<path id="mfid96"
												d="M73.279,149.76 L73.279,145.01 L33.799,145.01 L33.799,149.76 L73.279,149.76 Z"/>
									</defs>
								</g>
								<g fill="#666666" stroke-width="1" stroke="#4d4d4d" stroke-linecap="round" stroke-linejoin="round">
									<use xlink:href="#mfid96" fill="none"/>
									<defs>
										<path id="mfid97"
												d="M38.019,151.09 L40.29,151.09 L40.29,149.76 L38.019,149.76 L38.019,151.09 Z M47.482,151.09 L49.754,151.09 L49.754,149.76 L47.482,149.76 L47.482,151.09 Z M57.324,151.09 L59.595,151.09 L59.595,149.76 L57.324,149.76 L57.324,151.09 Z M66.788,151.09 L69.059,151.09 L69.059,149.76 L66.788,149.76 L66.788,151.09 Z"/>
									</defs>
								</g>
								<g fill="#e6a835" stroke-width="1" stroke="#4d4d4d" stroke-linecap="round" stroke-linejoin="round">
									<use xlink:href="#mfid97" fill-rule="evenodd" stroke="none"/>
									<defs>
										<path id="mfid98"
												d="M110.48,153.28 C110.48,151.95 109.4,150.88 108.08,150.88 C106.75,150.88 105.68,151.95 105.68,153.28 C105.68,154.6 106.75,155.68 108.08,155.68 C109.4,155.68 110.48,154.6 110.48,153.28 Z"/>
									</defs>
								</g>
								<g fill="#1a1a1a" stroke-width="1" stroke="#4d4d4d" stroke-linecap="round" stroke-linejoin="round">
									<use xlink:href="#mfid98" fill-rule="evenodd" stroke="none"/>
									<defs>
										<path id="mfid99"
												d="M63.949,171.66 L48.481,171.66 L50.842,169.16 C51.396,168.57 52.166,168.24 52.972,168.24 L52.972,168.24 L55.245,168.24 C55.514,169 56.351,169.4 57.114,169.13 C57.876,168.86 58.276,168.03 58.006,167.27 C57.737,166.5 56.9,166.1 56.137,166.37 C55.72,166.52 55.392,166.85 55.245,167.27 L55.245,167.27 L52.972,167.27 C51.897,167.27 50.87,167.71 50.132,168.49 L50.132,168.49 L48.005,170.74 C47.452,171.33 46.681,171.66 45.875,171.66 L45.346,171.66 C45.077,170.34 43.787,169.49 42.466,169.76 C41.145,170.03 40.293,171.31 40.562,172.64 C40.832,173.96 42.122,174.81 43.443,174.54 C44.401,174.34 45.151,173.59 45.346,172.64 L45.346,172.64 L50.026,172.64 C50.832,172.64 51.602,172.97 52.155,173.55 L52.155,173.55 L54.282,175.81 C55.02,176.59 56.048,177.03 57.122,177.03 L57.122,177.03 L58.823,177.03 L58.823,178.01 L61.752,178.01 L61.752,175.08 L58.823,175.08 L58.823,176.05 L57.122,176.05 C56.316,176.05 55.546,175.72 54.992,175.14 L54.992,175.14 L52.632,172.64 L63.949,172.64 L63.949,173.61 L66.486,172.15 L63.949,170.68 L63.949,171.66 Z"/>
									</defs>
								</g>
								<g fill="#f2f2f2" stroke-width="1" stroke="#4d4d4d" stroke-linecap="round" stroke-linejoin="round">
									<use xlink:href="#mfid99" fill-rule="evenodd" stroke="none"/>
									<defs>
										<path id="mfid100"
												d="M319.46,173.85 L327.89,173.85 L327.89,175.18 L319.02,175.18 L319.46,173.85 Z M317.42,179.97 L317.01,178.81 L309.5,178.81 L309.5,180.1 L313.55,180.1 L313.55,178.98 L313.95,180.1 L320.89,180.1 L321.26,178.98 L321.29,180.1 L325.34,180.1 L325.34,178.81 L317.79,178.81 L317.42,179.97 Z M305.29,173.85 L291.08,173.85 L291.08,175.18 L305.66,175.18 C305.59,174.7 305.49,174.29 305.29,173.85 Z M291.08,187.51 L305.12,187.51 C305.36,187.14 305.56,186.7 305.66,186.26 C305.59,186.26 291.08,186.26 291.08,186.26 L291.08,187.51 Z M304.27,172.7 C303.89,172.36 303.45,172.08 302.98,171.88 C302.16,171.51 301.24,171.4 300.33,171.4 L291.08,171.4 L291.08,172.7 L304.27,172.7 Z M302.98,189.31 C303.32,189.18 303.66,188.94 303.96,188.7 L291.08,188.7 L291.08,189.99 L300.02,189.99 C301.04,189.99 302.06,189.79 302.98,189.31 Z M304.95,182.59 C304.78,182.31 304.57,182.04 304.34,181.8 C304.17,181.6 304,181.46 303.79,181.29 L293.66,181.29 L293.66,182.59 L304.95,182.59 Z M293.66,178.81 L293.66,180.1 L303.66,180.1 C303.89,179.93 304.1,179.73 304.3,179.49 C304.51,179.32 304.64,179.05 304.81,178.81 L293.66,178.81 Z M289.79,189.99 L289.79,188.7 L280.61,188.7 L280.61,189.99 L289.79,189.99 Z M289.79,186.26 L280.61,186.26 L280.61,187.51 L289.79,187.51 L289.79,186.26 Z M289.79,172.7 L289.79,171.4 L280.61,171.4 L280.61,172.7 L289.79,172.7 Z M280.61,173.85 L280.61,175.18 L289.79,175.18 L289.79,173.85 L280.61,173.85 Z M315.35,173.85 L306.92,173.85 L306.92,175.18 L315.79,175.18 L315.35,173.85 Z M314.46,171.4 L306.92,171.4 L306.92,172.7 L314.91,172.7 L314.46,171.4 Z M319.93,172.7 L327.89,172.7 L327.89,171.4 L320.34,171.4 L319.93,172.7 Z M316.16,176.33 L309.5,176.33 L309.5,177.62 L316.6,177.62 L316.16,176.33 Z M318.64,176.33 L318.2,177.62 L325.34,177.62 L325.34,176.33 L318.64,176.33 Z M321.29,186.26 L321.29,187.51 L327.89,187.51 L327.89,186.26 L321.29,186.26 Z M306.92,186.22 L306.92,187.51 L313.55,187.51 L313.55,186.26 L306.92,186.22 Z M327.89,189.99 L327.89,188.7 L321.29,188.7 L321.29,189.99 L327.89,189.99 Z M313.55,189.99 L313.55,188.7 L306.92,188.7 L306.92,189.99 L313.55,189.99 Z M314.33,181.29 L314.77,182.59 L320,182.59 L320.48,181.29 L314.33,181.29 Z M315.21,183.77 L315.69,185.07 L319.15,185.07 L319.6,183.77 L315.21,183.77 Z M301.58,183.77 L301.58,185.07 L305.76,185.07 C305.73,184.62 305.66,184.18 305.52,183.77 L301.58,183.77 Z M305.76,176.33 L301.58,176.33 L301.58,177.62 L305.49,177.62 C305.63,177.22 305.76,176.33 305.76,176.33 Z M283.16,185.07 L287.24,185.07 L287.24,183.77 L283.16,183.77 L283.16,185.07 Z M309.5,181.29 L309.5,182.59 L313.55,182.59 L313.55,181.29 L309.5,181.29 Z M287.24,182.59 L287.24,181.29 L283.16,181.29 L283.16,182.59 L287.24,182.59 Z M321.29,181.29 L321.29,182.59 L325.34,182.59 L325.34,181.29 L321.29,181.29 Z M287.24,177.62 L287.24,176.33 L283.16,176.33 L283.16,177.62 L287.24,177.62 Z M321.29,183.77 L321.29,185.07 L325.34,185.07 L325.34,183.77 L321.29,183.77 Z M309.5,183.77 L309.5,185.07 L313.55,185.07 L313.55,183.77 L309.5,183.77 Z M283.16,180.1 L287.24,180.1 L287.24,178.81 L283.16,178.81 L283.16,180.1 Z M293.66,183.77 L293.66,185.07 L297.71,185.07 L297.71,183.77 L293.66,183.77 Z M293.66,177.62 L297.71,177.62 L297.71,176.33 L293.66,176.33 L293.66,177.62 Z M316.09,186.26 L316.54,187.51 L318.27,187.51 L318.75,186.26 L316.09,186.26 Z M317.42,189.99 L317.86,188.7 L316.94,188.7 L317.42,189.99 Z"/>
									</defs>
								</g>
								<g fill="#4d4d4d" stroke-width="1" stroke="#4d4d4d" stroke-linecap="round" stroke-linejoin="round">
									<use xlink:href="#mfid100" fill-rule="evenodd" stroke="none"/>
									<defs>
										<path id="mfid101"
												d="M793.16,1.5 L796.12,6.7417 L802.04,6.7417 L805,1.5 L793.16,1.5 Z M769.32,1.5 L772.28,6.7417 L778.2,6.7417 L781.16,1.5 L769.32,1.5 Z M745.48,1.5 L748.44,6.7417 L754.36,6.7417 L757.32,1.5 L745.48,1.5 Z M721.64,1.5 L724.6,6.7417 L730.52,6.7417 L733.48,1.5 L721.64,1.5 Z M697.8,1.5 L700.76,6.7417 L706.68,6.7417 L709.64,1.5 L697.8,1.5 Z M673.96,1.5 L676.92,6.7417 L682.84,6.7417 L685.81,1.5 L673.96,1.5 Z M650.12,1.5 L653.08,6.7417 L659,6.7417 L661.97,1.5 L650.12,1.5 Z M626.28,1.5 L629.24,6.7417 L635.17,6.7417 L638.13,1.5 L626.28,1.5 Z M602.44,1.5 L605.4,6.7417 L611.33,6.7417 L614.29,1.5 L602.44,1.5 Z M578.6,1.5 L581.56,6.7417 L587.49,6.7417 L590.45,1.5 L578.6,1.5 Z"/>
									</defs>
								</g>
								<g fill="#333333" stroke-width="1" stroke="#4d4d4d" stroke-linecap="round" stroke-linejoin="round">
									<use xlink:href="#mfid101" fill-rule="evenodd" stroke="none"/>
									<defs>
										<path id="mfid102"
												d="M793.16,43.598 L796.12,48.839 L802.04,48.839 L805,43.598 L802.04,38.356 L796.12,38.356 L793.16,43.598 Z M793.16,29.565 L796.12,34.807 L802.04,34.807 L805,29.565 L802.04,24.323 L796.12,24.323 L793.16,29.565 Z M793.16,15.533 L796.12,20.774 L802.04,20.774 L805,15.533 L802.04,10.291 L796.12,10.291 L793.16,15.533 Z M805.07,50.605 L808.04,55.847 L813.96,55.847 L816.92,50.605 L813.96,45.363 L808.04,45.363 L805.07,50.605 Z M805.07,36.581 L808.04,41.823 L813.96,41.823 L816.92,36.581 L813.96,31.34 L808.04,31.34 L805.07,36.581 Z M805.07,22.549 L808.04,27.791 L813.96,27.791 L816.92,22.549 L813.96,17.307 L808.04,17.307 L805.07,22.549 Z M805.07,8.5163 L808.04,13.758 L813.96,13.758 L816.92,8.5163 L813.96,3.2745 L808.04,3.2745 L805.07,8.5163 Z M781.24,64.638 L784.2,69.879 L790.12,69.879 L793.08,64.638 L790.12,59.396 L784.2,59.396 L781.24,64.638 Z M781.24,50.605 L784.2,55.847 L790.12,55.847 L793.08,50.605 L790.12,45.363 L784.2,45.363 L781.24,50.605 Z M781.24,36.581 L784.2,41.823 L790.12,41.823 L793.08,36.581 L790.12,31.34 L784.2,31.34 L781.24,36.581 Z M781.24,22.549 L784.2,27.791 L790.12,27.791 L793.08,22.549 L790.12,17.307 L784.2,17.307 L781.24,22.549 Z M781.24,8.5163 L784.2,13.758 L790.12,13.758 L793.08,8.5163 L790.12,3.2745 L784.2,3.2745 L781.24,8.5163 Z M793.16,71.654 L796.12,76.896 L802.04,76.896 L805,71.654 L802.04,66.412 L796.12,66.412 L793.16,71.654 Z M793.16,57.621 L796.12,62.863 L802.04,62.863 L805,57.621 L802.04,52.379 L796.12,52.379 L793.16,57.621 Z M805.07,64.638 L808.04,69.879 L813.96,69.879 L816.92,64.638 L813.96,59.396 L808.04,59.396 L805.07,64.638 Z M745.48,85.686 L748.44,90.928 L754.36,90.928 L757.32,85.686 L754.36,80.445 L748.44,80.445 L745.48,85.686 Z M757.4,78.67 L760.36,83.912 L766.28,83.912 L769.24,78.67 L766.28,73.428 L760.36,73.428 L757.4,78.67 Z M769.32,85.686 L772.28,90.928 L778.2,90.928 L781.16,85.686 L778.2,80.445 L772.28,80.445 L769.32,85.686 Z M769.32,43.598 L772.28,48.839 L778.2,48.839 L781.16,43.598 L778.2,38.356 L772.28,38.356 L769.32,43.598 Z M769.32,29.565 L772.28,34.807 L778.2,34.807 L781.16,29.565 L778.2,24.323 L772.28,24.323 L769.32,29.565 Z M769.32,15.533 L772.28,20.774 L778.2,20.774 L781.16,15.533 L778.2,10.291 L772.28,10.291 L769.32,15.533 Z M745.48,71.654 L748.44,76.896 L754.36,76.896 L757.32,71.654 L754.36,66.412 L748.44,66.412 L745.48,71.654 Z M745.48,57.621 L748.44,62.863 L754.36,62.863 L757.32,57.621 L754.36,52.379 L748.44,52.379 L745.48,57.621 Z M757.4,64.638 L760.36,69.879 L766.28,69.879 L769.24,64.638 L766.28,59.396 L760.36,59.396 L757.4,64.638 Z M745.48,43.598 L748.44,48.839 L754.36,48.839 L757.32,43.598 L754.36,38.356 L748.44,38.356 L745.48,43.598 Z M745.48,29.565 L748.44,34.807 L754.36,34.807 L757.32,29.565 L754.36,24.323 L748.44,24.323 L745.48,29.565 Z M745.48,15.533 L748.44,20.774 L754.36,20.774 L757.32,15.533 L754.36,10.291 L748.44,10.291 L745.48,15.533 Z M757.4,50.605 L760.36,55.847 L766.28,55.847 L769.24,50.605 L766.28,45.363 L760.36,45.363 L757.4,50.605 Z M757.4,36.581 L760.36,41.823 L766.28,41.823 L769.24,36.581 L766.28,31.34 L760.36,31.34 L757.4,36.581 Z M757.4,22.549 L760.36,27.791 L766.28,27.791 L769.24,22.549 L766.28,17.307 L760.36,17.307 L757.4,22.549 Z M757.4,8.5163 L760.36,13.758 L766.28,13.758 L769.24,8.5163 L766.28,3.2745 L760.36,3.2745 L757.4,8.5163 Z M769.32,71.654 L772.28,76.896 L778.2,76.896 L781.16,71.654 L778.2,66.412 L772.28,66.412 L769.32,71.654 Z M769.32,57.621 L772.28,62.863 L778.2,62.863 L781.16,57.621 L778.2,52.379 L772.28,52.379 L769.32,57.621 Z M781.24,78.67 L784.2,83.912 L790.12,83.912 L793.08,78.67 L790.12,73.428 L784.2,73.428 L781.24,78.67 Z M793.16,85.686 L796.12,90.928 L802.04,90.928 L805,85.686 L802.04,80.445 L796.12,80.445 L793.16,85.686 Z M805.07,78.67 L808.04,83.912 L813.96,83.912 L816.92,78.67 L813.96,73.428 L808.04,73.428 L805.07,78.67 Z M709.72,92.711 L712.68,97.952 L718.6,97.952 L721.56,92.711 L718.6,87.469 L712.68,87.469 L709.72,92.711 Z M721.64,99.727 L724.6,104.97 L730.52,104.97 L733.48,99.727 L730.52,94.485 L724.6,94.485 L721.64,99.727 Z M733.56,92.711 L736.52,97.952 L742.44,97.952 L745.4,92.711 L742.44,87.469 L736.52,87.469 L733.56,92.711 Z M662.04,120.78 L665,126.03 L670.92,126.03 L673.89,120.78 L670.92,115.54 L665,115.54 L662.04,120.78 Z M662.04,106.74 L665,111.98 L670.92,111.98 L673.89,106.74 L670.92,101.5 L665,101.5 L662.04,106.74 Z M673.96,113.76 L676.92,119 L682.84,119 L685.81,113.76 L682.84,108.52 L676.92,108.52 L673.96,113.76 Z M685.88,120.78 L688.84,126.03 L694.76,126.03 L697.73,120.78 L694.76,115.54 L688.84,115.54 L685.88,120.78 Z M685.88,106.74 L688.84,111.98 L694.76,111.98 L697.73,106.74 L694.76,101.5 L688.84,101.5 L685.88,106.74 Z M697.8,113.76 L700.76,119 L706.68,119 L709.64,113.76 L706.68,108.52 L700.76,108.52 L697.8,113.76 Z M662.04,92.711 L665,97.952 L670.92,97.952 L673.89,92.711 L670.92,87.469 L665,87.469 L662.04,92.711 Z M673.96,99.727 L676.92,104.97 L682.84,104.97 L685.81,99.727 L682.84,94.485 L676.92,94.485 L673.96,99.727 Z M685.88,92.711 L688.84,97.952 L694.76,97.952 L697.73,92.711 L694.76,87.469 L688.84,87.469 L685.88,92.711 Z M697.8,99.727 L700.76,104.97 L706.68,104.97 L709.64,99.727 L706.68,94.485 L700.76,94.485 L697.8,99.727 Z M709.72,120.78 L712.68,126.03 L718.6,126.03 L721.56,120.78 L718.6,115.54 L712.68,115.54 L709.72,120.78 Z M709.72,106.74 L712.68,111.98 L718.6,111.98 L721.56,106.74 L718.6,101.5 L712.68,101.5 L709.72,106.74 Z M721.64,113.76 L724.6,119 L730.52,119 L733.48,113.76 L730.52,108.52 L724.6,108.52 L721.64,113.76 Z M733.56,120.78 L736.52,126.03 L742.44,126.03 L745.4,120.78 L742.44,115.54 L736.52,115.54 L733.56,120.78 Z M733.56,106.74 L736.52,111.98 L742.44,111.98 L745.4,106.74 L742.44,101.5 L736.52,101.5 L733.56,106.74 Z M721.64,43.598 L724.6,48.839 L730.52,48.839 L733.48,43.598 L730.52,38.356 L724.6,38.356 L721.64,43.598 Z M721.64,29.565 L724.6,34.807 L730.52,34.807 L733.48,29.565 L730.52,24.323 L724.6,24.323 L721.64,29.565 Z M721.64,15.533 L724.6,20.774 L730.52,20.774 L733.48,15.533 L730.52,10.291 L724.6,10.291 L721.64,15.533 Z M733.56,50.605 L736.52,55.847 L742.44,55.847 L745.4,50.605 L742.44,45.363 L736.52,45.363 L733.56,50.605 Z M733.56,36.581 L736.52,41.823 L742.44,41.823 L745.4,36.581 L742.44,31.34 L736.52,31.34 L733.56,36.581 Z M733.56,22.549 L736.52,27.791 L742.44,27.791 L745.4,22.549 L742.44,17.307 L736.52,17.307 L733.56,22.549 Z M733.56,8.5163 L736.52,13.758 L742.44,13.758 L745.4,8.5163 L742.44,3.2745 L736.52,3.2745 L733.56,8.5163 Z M709.72,64.638 L712.68,69.879 L718.6,69.879 L721.56,64.638 L718.6,59.396 L712.68,59.396 L709.72,64.638 Z M709.72,50.605 L712.68,55.847 L718.6,55.847 L721.56,50.605 L718.6,45.363 L712.68,45.363 L709.72,50.605 Z M709.72,36.581 L712.68,41.823 L718.6,41.823 L721.56,36.581 L718.6,31.34 L712.68,31.34 L709.72,36.581 Z M709.72,22.549 L712.68,27.791 L718.6,27.791 L721.56,22.549 L718.6,17.307 L712.68,17.307 L709.72,22.549 Z M709.72,8.5163 L712.68,13.758 L718.6,13.758 L721.56,8.5163 L718.6,3.2745 L712.68,3.2745 L709.72,8.5163 Z M721.64,71.654 L724.6,76.896 L730.52,76.896 L733.48,71.654 L730.52,66.412 L724.6,66.412 L721.64,71.654 Z M721.64,57.621 L724.6,62.863 L730.52,62.863 L733.48,57.621 L730.52,52.379 L724.6,52.379 L721.64,57.621 Z M733.56,64.638 L736.52,69.879 L742.44,69.879 L745.4,64.638 L742.44,59.396 L736.52,59.396 L733.56,64.638 Z M662.04,78.67 L665,83.912 L670.92,83.912 L673.89,78.67 L670.92,73.428 L665,73.428 L662.04,78.67 Z M673.96,85.686 L676.92,90.928 L682.84,90.928 L685.81,85.686 L682.84,80.445 L676.92,80.445 L673.96,85.686 Z M685.88,78.67 L688.84,83.912 L694.76,83.912 L697.73,78.67 L694.76,73.428 L688.84,73.428 L685.88,78.67 Z M697.8,85.686 L700.76,90.928 L706.68,90.928 L709.64,85.686 L706.68,80.445 L700.76,80.445 L697.8,85.686 Z M697.8,43.598 L700.76,48.839 L706.68,48.839 L709.64,43.598 L706.68,38.356 L700.76,38.356 L697.8,43.598 Z M697.8,29.565 L700.76,34.807 L706.68,34.807 L709.64,29.565 L706.68,24.323 L700.76,24.323 L697.8,29.565 Z M697.8,15.533 L700.76,20.774 L706.68,20.774 L709.64,15.533 L706.68,10.291 L700.76,10.291 L697.8,15.533 Z M662.04,64.638 L665,69.879 L670.92,69.879 L673.89,64.638 L670.92,59.396 L665,59.396 L662.04,64.638 Z M662.04,50.605 L665,55.847 L670.92,55.847 L673.89,50.605 L670.92,45.363 L665,45.363 L662.04,50.605 Z M673.96,71.654 L676.92,76.896 L682.84,76.896 L685.81,71.654 L682.84,66.412 L676.92,66.412 L673.96,71.654 Z M673.96,57.621 L676.92,62.863 L682.84,62.863 L685.81,57.621 L682.84,52.379 L676.92,52.379 L673.96,57.621 Z M685.88,64.638 L688.84,69.879 L694.76,69.879 L697.73,64.638 L694.76,59.396 L688.84,59.396 L685.88,64.638 Z M685.88,50.605 L688.84,55.847 L694.76,55.847 L697.73,50.605 L694.76,45.363 L688.84,45.363 L685.88,50.605 Z M673.96,15.533 L676.92,20.774 L682.84,20.774 L685.81,15.533 L682.84,10.291 L676.92,10.291 L673.96,15.533 Z M685.88,22.549 L688.84,27.791 L694.76,27.791 L697.73,22.549 L694.76,17.307 L688.84,17.307 L685.88,22.549 Z M685.88,8.5163 L688.84,13.758 L694.76,13.758 L697.73,8.5163 L694.76,3.2745 L688.84,3.2745 L685.88,8.5163 Z M662.04,36.581 L665,41.823 L670.92,41.823 L673.89,36.581 L670.92,31.34 L665,31.34 L662.04,36.581 Z M662.04,22.549 L665,27.791 L670.92,27.791 L673.89,22.549 L670.92,17.307 L665,17.307 L662.04,22.549 Z M662.04,8.5163 L665,13.758 L670.92,13.758 L673.89,8.5163 L670.92,3.2745 L665,3.2745 L662.04,8.5163 Z M673.96,43.598 L676.92,48.839 L682.84,48.839 L685.81,43.598 L682.84,38.356 L676.92,38.356 L673.96,43.598 Z M673.96,29.565 L676.92,34.807 L682.84,34.807 L685.81,29.565 L682.84,24.323 L676.92,24.323 L673.96,29.565 Z M685.88,36.581 L688.84,41.823 L694.76,41.823 L697.73,36.581 L694.76,31.34 L688.84,31.34 L685.88,36.581 Z M697.8,71.654 L700.76,76.896 L706.68,76.896 L709.64,71.654 L706.68,66.412 L700.76,66.412 L697.8,71.654 Z M697.8,57.621 L700.76,62.863 L706.68,62.863 L709.64,57.621 L706.68,52.379 L700.76,52.379 L697.8,57.621 Z M709.72,78.67 L712.68,83.912 L718.6,83.912 L721.56,78.67 L718.6,73.428 L712.68,73.428 L709.72,78.67 Z M721.64,85.686 L724.6,90.928 L730.52,90.928 L733.48,85.686 L730.52,80.445 L724.6,80.445 L721.64,85.686 Z M733.56,78.67 L736.52,83.912 L742.44,83.912 L745.4,78.67 L742.44,73.428 L736.52,73.428 L733.56,78.67 Z M781.24,92.711 L784.2,97.952 L790.12,97.952 L793.08,92.711 L790.12,87.469 L784.2,87.469 L781.24,92.711 Z M793.16,99.727 L796.12,104.97 L802.04,104.97 L805,99.727 L802.04,94.485 L796.12,94.485 L793.16,99.727 Z M805.07,92.711 L808.04,97.952 L813.96,97.952 L816.92,92.711 L813.96,87.469 L808.04,87.469 L805.07,92.711 Z M745.48,113.76 L748.44,119 L754.36,119 L757.32,113.76 L754.36,108.52 L748.44,108.52 L745.48,113.76 Z M757.4,120.78 L760.36,126.03 L766.28,126.03 L769.24,120.78 L766.28,115.54 L760.36,115.54 L757.4,120.78 Z M757.4,106.74 L760.36,111.98 L766.28,111.98 L769.24,106.74 L766.28,101.5 L760.36,101.5 L757.4,106.74 Z M769.32,113.76 L772.28,119 L778.2,119 L781.16,113.76 L778.2,108.52 L772.28,108.52 L769.32,113.76 Z M745.48,99.727 L748.44,104.97 L754.36,104.97 L757.32,99.727 L754.36,94.485 L748.44,94.485 L745.48,99.727 Z M757.4,92.711 L760.36,97.952 L766.28,97.952 L769.24,92.711 L766.28,87.469 L760.36,87.469 L757.4,92.711 Z M769.32,99.727 L772.28,104.97 L778.2,104.97 L781.16,99.727 L778.2,94.485 L772.28,94.485 L769.32,99.727 Z M781.24,120.78 L784.2,126.03 L790.12,126.03 L793.08,120.78 L790.12,115.54 L784.2,115.54 L781.24,120.78 Z M781.24,106.74 L784.2,111.98 L790.12,111.98 L793.08,106.74 L790.12,101.5 L784.2,101.5 L781.24,106.74 Z M793.16,113.76 L796.12,119 L802.04,119 L805,113.76 L802.04,108.52 L796.12,108.52 L793.16,113.76 Z M805.07,120.78 L808.04,126.03 L813.96,126.03 L816.92,120.78 L813.96,115.54 L808.04,115.54 L805.07,120.78 Z M805.07,106.74 L808.04,111.98 L813.96,111.98 L816.92,106.74 L813.96,101.5 L808.04,101.5 L805.07,106.74 Z M650.12,29.565 L653.08,34.807 L659,34.807 L661.97,29.565 L659,24.323 L653.08,24.323 L650.12,29.565 Z M650.12,15.533 L653.08,20.774 L659,20.774 L661.97,15.533 L659,10.291 L653.08,10.291 L650.12,15.533 Z M638.2,50.605 L641.16,55.847 L647.09,55.847 L650.05,50.605 L647.09,45.363 L641.16,45.363 L638.2,50.605 Z M638.2,36.581 L641.16,41.823 L647.09,41.823 L650.05,36.581 L647.09,31.34 L641.16,31.34 L638.2,36.581 Z M638.2,22.549 L641.16,27.791 L647.09,27.791 L650.05,22.549 L647.09,17.307 L641.16,17.307 L638.2,22.549 Z M638.2,8.5163 L641.16,13.758 L647.09,13.758 L650.05,8.5163 L647.09,3.2745 L641.16,3.2745 L638.2,8.5163 Z M650.12,57.621 L653.08,62.863 L659,62.863 L661.97,57.621 L659,52.379 L653.08,52.379 L650.12,57.621 Z M650.12,43.598 L653.08,48.839 L659,48.839 L661.97,43.598 L659,38.356 L653.08,38.356 L650.12,43.598 Z M626.28,71.654 L629.24,76.896 L635.17,76.896 L638.13,71.654 L635.17,66.412 L629.24,66.412 L626.28,71.654 Z M626.28,57.621 L629.24,62.863 L635.17,62.863 L638.13,57.621 L635.17,52.379 L629.24,52.379 L626.28,57.621 Z M626.28,43.598 L629.24,48.839 L635.17,48.839 L638.13,43.598 L635.17,38.356 L629.24,38.356 L626.28,43.598 Z M626.28,29.565 L629.24,34.807 L635.17,34.807 L638.13,29.565 L635.17,24.323 L629.24,24.323 L626.28,29.565 Z M626.28,15.533 L629.24,20.774 L635.17,20.774 L638.13,15.533 L635.17,10.291 L629.24,10.291 L626.28,15.533 Z M638.2,78.67 L641.16,83.912 L647.09,83.912 L650.05,78.67 L647.09,73.428 L641.16,73.428 L638.2,78.67 Z M638.2,64.638 L641.16,69.879 L647.09,69.879 L650.05,64.638 L647.09,59.396 L641.16,59.396 L638.2,64.638 Z M650.12,71.654 L653.08,76.896 L659,76.896 L661.97,71.654 L659,66.412 L653.08,66.412 L650.12,71.654 Z M638.2,92.711 L641.16,97.952 L647.09,97.952 L650.05,92.711 L647.09,87.469 L641.16,87.469 L638.2,92.711 Z M650.12,99.727 L653.08,104.97 L659,104.97 L661.97,99.727 L659,94.485 L653.08,94.485 L650.12,99.727 Z M650.12,85.686 L653.08,90.928 L659,90.928 L661.97,85.686 L659,80.445 L653.08,80.445 L650.12,85.686 Z M626.28,113.76 L629.24,119 L635.17,119 L638.13,113.76 L635.17,108.52 L629.24,108.52 L626.28,113.76 Z M626.28,99.727 L629.24,104.97 L635.17,104.97 L638.13,99.727 L635.17,94.485 L629.24,94.485 L626.28,99.727 Z M626.28,85.686 L629.24,90.928 L635.17,90.928 L638.13,85.686 L635.17,80.445 L629.24,80.445 L626.28,85.686 Z M638.2,120.78 L641.16,126.03 L647.09,126.03 L650.05,120.78 L647.09,115.54 L641.16,115.54 L638.2,120.78 Z M638.2,106.74 L641.16,111.98 L647.09,111.98 L650.05,106.74 L647.09,101.5 L641.16,101.5 L638.2,106.74 Z M650.12,113.76 L653.08,119 L659,119 L661.97,113.76 L659,108.52 L653.08,108.52 L650.12,113.76 Z M602.44,113.76 L605.4,119 L611.33,119 L614.29,113.76 L611.33,108.52 L605.4,108.52 L602.44,113.76 Z M602.44,99.727 L605.4,104.97 L611.33,104.97 L614.29,99.727 L611.33,94.485 L605.4,94.485 L602.44,99.727 Z M602.44,85.686 L605.4,90.928 L611.33,90.928 L614.29,85.686 L611.33,80.445 L605.4,80.445 L602.44,85.686 Z M614.36,120.78 L617.32,126.03 L623.25,126.03 L626.21,120.78 L623.25,115.54 L617.32,115.54 L614.36,120.78 Z M614.36,106.74 L617.32,111.98 L623.25,111.98 L626.21,106.74 L623.25,101.5 L617.32,101.5 L614.36,106.74 Z M614.36,92.711 L617.32,97.952 L623.25,97.952 L626.21,92.711 L623.25,87.469 L617.32,87.469 L614.36,92.711 Z M614.36,50.605 L617.32,55.847 L623.25,55.847 L626.21,50.605 L623.25,45.363 L617.32,45.363 L614.36,50.605 Z M614.36,36.581 L617.32,41.823 L623.25,41.823 L626.21,36.581 L623.25,31.34 L617.32,31.34 L614.36,36.581 Z M614.36,22.549 L617.32,27.791 L623.25,27.791 L626.21,22.549 L623.25,17.307 L617.32,17.307 L614.36,22.549 Z M614.36,8.5163 L617.32,13.758 L623.25,13.758 L626.21,8.5163 L623.25,3.2745 L617.32,3.2745 L614.36,8.5163 Z M602.44,71.654 L605.4,76.896 L611.33,76.896 L614.29,71.654 L611.33,66.412 L605.4,66.412 L602.44,71.654 Z M602.44,57.621 L605.4,62.863 L611.33,62.863 L614.29,57.621 L611.33,52.379 L605.4,52.379 L602.44,57.621 Z M602.44,43.598 L605.4,48.839 L611.33,48.839 L614.29,43.598 L611.33,38.356 L605.4,38.356 L602.44,43.598 Z M602.44,29.565 L605.4,34.807 L611.33,34.807 L614.29,29.565 L611.33,24.323 L605.4,24.323 L602.44,29.565 Z M602.44,15.533 L605.4,20.774 L611.33,20.774 L614.29,15.533 L611.33,10.291 L605.4,10.291 L602.44,15.533 Z M614.36,78.67 L617.32,83.912 L623.25,83.912 L626.21,78.67 L623.25,73.428 L617.32,73.428 L614.36,78.67 Z M614.36,64.638 L617.32,69.879 L623.25,69.879 L626.21,64.638 L623.25,59.396 L617.32,59.396 L614.36,64.638 Z M590.52,36.581 L593.48,41.823 L599.41,41.823 L602.37,36.581 L599.41,31.34 L593.48,31.34 L590.52,36.581 Z M590.52,22.549 L593.48,27.791 L599.41,27.791 L602.37,22.549 L599.41,17.307 L593.48,17.307 L590.52,22.549 Z M590.52,8.5163 L593.48,13.758 L599.41,13.758 L602.37,8.5163 L599.41,3.2745 L593.48,3.2745 L590.52,8.5163 Z M578.6,71.654 L581.56,76.896 L587.49,76.896 L590.45,71.654 L587.49,66.412 L581.56,66.412 L578.6,71.654 Z M578.6,57.621 L581.56,62.863 L587.49,62.863 L590.45,57.621 L587.49,52.379 L581.56,52.379 L578.6,57.621 Z M578.6,43.598 L581.56,48.839 L587.49,48.839 L590.45,43.598 L587.49,38.356 L581.56,38.356 L578.6,43.598 Z M578.6,29.565 L581.56,34.807 L587.49,34.807 L590.45,29.565 L587.49,24.323 L581.56,24.323 L578.6,29.565 Z M578.6,15.533 L581.56,20.774 L587.49,20.774 L590.45,15.533 L587.49,10.291 L581.56,10.291 L578.6,15.533 Z M590.52,64.638 L593.48,69.879 L599.41,69.879 L602.37,64.638 L599.41,59.396 L593.48,59.396 L590.52,64.638 Z M590.52,50.605 L593.48,55.847 L599.41,55.847 L602.37,50.605 L599.41,45.363 L593.48,45.363 L590.52,50.605 Z M566.68,120.78 L569.64,126.03 L575.57,126.03 L578.53,120.78 L575.57,115.54 L569.64,115.54 L566.68,120.78 Z M566.68,106.74 L569.64,111.98 L575.57,111.98 L578.53,106.74 L575.57,101.5 L569.64,101.5 L566.68,106.74 Z M566.68,92.711 L569.64,97.952 L575.57,97.952 L578.53,92.711 L575.57,87.469 L569.64,87.469 L566.68,92.711 Z M566.68,78.67 L569.64,83.912 L575.57,83.912 L578.53,78.67 L575.57,73.428 L569.64,73.428 L566.68,78.67 Z M566.68,64.638 L569.64,69.879 L575.57,69.879 L578.53,64.638 L575.57,59.396 L569.64,59.396 L566.68,64.638 Z M566.68,50.605 L569.64,55.847 L575.57,55.847 L578.53,50.605 L575.57,45.363 L569.64,45.363 L566.68,50.605 Z M566.68,36.581 L569.64,41.823 L575.57,41.823 L578.53,36.581 L575.57,31.34 L569.64,31.34 L566.68,36.581 Z M566.68,22.549 L569.64,27.791 L575.57,27.791 L578.53,22.549 L575.57,17.307 L569.64,17.307 L566.68,22.549 Z M566.68,8.5163 L569.64,13.758 L575.57,13.758 L578.53,8.5163 L575.57,3.2745 L569.64,3.2745 L566.68,8.5163 Z M578.6,113.76 L581.56,119 L587.49,119 L590.45,113.76 L587.49,108.52 L581.56,108.52 L578.6,113.76 Z M578.6,99.727 L581.56,104.97 L587.49,104.97 L590.45,99.727 L587.49,94.485 L581.56,94.485 L578.6,99.727 Z M578.6,85.686 L581.56,90.928 L587.49,90.928 L590.45,85.686 L587.49,80.445 L581.56,80.445 L578.6,85.686 Z M590.52,120.78 L593.48,126.03 L599.41,126.03 L602.37,120.78 L599.41,115.54 L593.48,115.54 L590.52,120.78 Z M590.52,106.74 L593.48,111.98 L599.41,111.98 L602.37,106.74 L599.41,101.5 L593.48,101.5 L590.52,106.74 Z M590.52,92.711 L593.48,97.952 L599.41,97.952 L602.37,92.711 L599.41,87.469 L593.48,87.469 L590.52,92.711 Z M590.52,78.67 L593.48,83.912 L599.41,83.912 L602.37,78.67 L599.41,73.428 L593.48,73.428 L590.52,78.67 Z"/>
									</defs>
								</g>
								<g fill="#1a1a1a" stroke-width="1" stroke="#4d4d4d" stroke-linecap="round" stroke-linejoin="round">
									<use xlink:href="#mfid102" fill-rule="evenodd" stroke="none"/>
									<rect x="278.46" y="17.307" width="278.4" height="134.71" stroke="none"/>
									<defs>
										<path id="mfid103"
												d="M278.46,152.01 L556.86,152.01 L556.86,17.307 L278.46,17.307 L278.46,152.01 Z"/>
									</defs>
								</g>
								<g fill="#1a1a1a" stroke-width="1" stroke="#333333" stroke-linecap="round" stroke-linejoin="round">
									<use xlink:href="#mfid103" fill="none"/>
								</g>
								<g fill="#262626" stroke-width="1" stroke="#333333" stroke-linecap="round" stroke-linejoin="round">
									<rect x="260.42" y="152.01" width="310.84" height="1.44" stroke="none"/>
									<defs>
										<path id="mfid104"
												d="M260.42,153.45 L571.26,153.45 L571.26,152.01 L260.42,152.01 L260.42,153.45 Z"/>
									</defs>
								</g>
								<g fill="#262626" stroke-width="1" stroke="#404040" stroke-linecap="round" stroke-linejoin="round">
									<use xlink:href="#mfid104" fill="none"/>
								</g>
								<g transform="matrix(96, 0.000000043001, -0.00000043001, 96, 263.29, 97.098)">
									<g fill="#eb5500" stroke-width="0.010417" stroke="#404040" stroke-linecap="round"
											stroke-linejoin="round">
										<g font-size="0.15346" font-family="ARIAL">
											<text stroke="none" xml:space="preserve" x="0.021343" y="0.26295">0</text>
										</g>
									</g>
								</g>
								<g transform="matrix(96, 0.000000043001, -0.00000043001, 96, 263.29, 32.196)">
									<g fill="#eb5500" stroke-width="0.010417" stroke="#404040" stroke-linecap="round"
											stroke-linejoin="round">
										<g font-size="0.15346" font-family="ARIAL">
											<text stroke="none" xml:space="preserve" x="0.021343" y="0.26295">1</text>
											<defs>
												<path id="mfid105"
														d="M140.14,150.23 L134.83,141.04 L124.21,141.04 L118.91,150.23 L124.21,159.42 L134.83,159.42 L140.14,150.23 Z M255.59,150.23 L250.28,141.04 L239.66,141.04 L234.36,150.23 L239.66,159.42 L250.28,159.42 L255.59,150.23 Z"/>
											</defs>
										</g>
									</g>
								</g>
								<g fill="#f0f0f0" stroke-width="1" stroke="#404040" stroke-linecap="round" stroke-linejoin="round">
									<use xlink:href="#mfid105" fill-rule="evenodd" stroke="none"/>
								</g>
								<g fill="#f0f0f0" stroke-width="1" stroke="#b3b3b3" stroke-linecap="round" stroke-linejoin="round">
									<use xlink:href="#mfid105" fill="none"/>
									<defs>
										<path id="mfid106"
												d="M137.78,150.23 C137.78,145.67 134.08,141.97 129.52,141.97 C124.96,141.97 121.27,145.67 121.27,150.23 C121.27,154.79 124.96,158.48 129.52,158.48 C134.08,158.48 137.78,154.79 137.78,150.23 Z M253.23,150.23 C253.23,145.67 249.53,141.97 244.97,141.97 C240.41,141.97 236.72,145.67 236.72,150.23 C236.72,154.79 240.41,158.48 244.97,158.48 C249.53,158.48 253.23,154.79 253.23,150.23 Z"/>
									</defs>
								</g>
								<g fill="#eceff0" stroke-width="1" stroke="#b3b3b3" stroke-linecap="round" stroke-linejoin="round">
									<use xlink:href="#mfid106" fill-rule="evenodd" stroke="none"/>
								</g>
								<g fill="#eceff0" stroke-width="1" stroke="#a9b7bc" stroke-linecap="round" stroke-linejoin="round">
									<use xlink:href="#mfid106" fill="none"/>
									<defs>
										<path id="mfid107"
												d="M133.21,150.23 C133.21,148.19 131.56,146.54 129.52,146.54 C127.49,146.54 125.84,148.19 125.84,150.23 C125.84,152.26 127.49,153.91 129.52,153.91 C131.56,153.91 133.21,152.26 133.21,150.23 Z M248.66,150.23 C248.66,148.19 247.01,146.54 244.97,146.54 C242.94,146.54 241.29,148.19 241.29,150.23 C241.29,152.26 242.94,153.91 244.97,153.91 C247.01,153.91 248.66,152.26 248.66,150.23 Z"/>
									</defs>
								</g>
								<g fill="#333333" stroke-width="1" stroke="#a9b7bc" stroke-linecap="round" stroke-linejoin="round">
									<use xlink:href="#mfid107" fill-rule="evenodd" stroke="none"/>
								</g>
								<g fill="#333333" stroke-width="1" stroke="#333333" stroke-linecap="round" stroke-linejoin="round">
									<use xlink:href="#mfid107" fill="none"/>
									<defs>
										<path id="mfid108"
												d="M229.95,154.31 C230.69,151.75 231.07,149.1 231.07,146.44 C231.07,141.94 227.43,138.3 222.94,138.3 C222.94,138.3 222.94,138.3 222.94,138.3 L222.94,138.3 L151.56,138.3 C147.06,138.3 143.42,141.94 143.42,146.44 C143.42,149.1 143.8,151.75 144.55,154.31 C145.9,158.96 150.16,162.16 154.99,162.16 L154.99,162.16 L219.5,162.16 C224.34,162.16 228.6,158.96 229.95,154.31 Z"/>
									</defs>
								</g>
								<g fill="#a6a6a6" stroke-width="1" stroke="#333333" stroke-linecap="round" stroke-linejoin="round">
									<use xlink:href="#mfid108" fill-rule="evenodd" stroke="none"/>
								</g>
								<g fill="#a6a6a6" stroke-width="1" stroke="#595959" stroke-linecap="round" stroke-linejoin="round">
									<use xlink:href="#mfid108" fill="none"/>
									<defs>
										<path id="mfid109"
												d="M228.1,153.78 C228.8,151.39 229.15,148.92 229.15,146.44 C229.15,143 226.37,140.22 222.94,140.22 C222.94,140.22 222.94,140.22 222.94,140.22 L222.94,140.22 L151.56,140.22 C148.13,140.22 145.34,143 145.34,146.44 C145.34,148.92 145.69,151.39 146.39,153.78 C147.5,157.6 151.01,160.24 154.99,160.24 L154.99,160.24 L219.5,160.24 C223.48,160.24 226.99,157.6 228.1,153.78 Z"/>
									</defs>
								</g>
								<g fill="#e4eaeb" stroke-width="1" stroke="#595959" stroke-linecap="round" stroke-linejoin="round">
									<use xlink:href="#mfid109" fill-rule="evenodd" stroke="none"/>
								</g>
								<g fill="#e4eaeb" stroke-width="1" stroke="#a0b0b6" stroke-linecap="round" stroke-linejoin="round">
									<use xlink:href="#mfid109" fill="none"/>
									<defs>
										<path id="mfid110"
												d="M225.34,152.97 C225.96,150.85 226.27,148.65 226.27,146.44 C226.27,144.59 224.78,143.1 222.94,143.1 C222.94,143.1 222.94,143.1 222.94,143.1 L222.94,143.1 L151.56,143.1 C149.72,143.1 148.22,144.59 148.22,146.44 C148.22,148.65 148.54,150.85 149.15,152.97 C149.91,155.57 152.29,157.36 154.99,157.36 L154.99,157.36 L219.5,157.36 C222.2,157.36 224.58,155.57 225.34,152.97 Z"/>
									</defs>
								</g>
								<g fill="#808080" stroke-width="1" stroke="#a0b0b6" stroke-linecap="round" stroke-linejoin="round">
									<use xlink:href="#mfid110" fill-rule="evenodd" stroke="none"/>
								</g>
								<g fill="#808080" stroke-width="1" stroke="#595959" stroke-linecap="round" stroke-linejoin="round">
									<use xlink:href="#mfid110" fill="none"/>
									<defs>
										<path id="mfid111"
												d="M186.72,172.01 L186.72,178.59 C185.7,178.88 185.11,179.93 185.4,180.94 C185.69,181.95 186.76,182.53 187.77,182.24 C188.79,181.95 189.38,180.9 189.09,179.89 C188.91,179.26 188.41,178.77 187.77,178.59 L187.77,172 L193.3,176.33 C193.63,176.6 193.83,177 193.83,177.43 L193.83,178.59 C192.81,178.88 192.22,179.93 192.51,180.94 C192.8,181.95 193.87,182.53 194.89,182.24 C195.91,181.95 196.5,180.9 196.2,179.89 C196.02,179.26 195.52,178.77 194.89,178.59 L194.89,177.43 C194.89,176.67 194.54,175.96 193.95,175.5 L193.95,175.5 L187.75,170.66 L187.77,168.33 L189.32,168.33 L187.25,164.52 L185.17,168.33 L186.72,168.33 L186.72,170.67 L180.55,175.5 C179.95,175.96 179.61,176.67 179.61,177.43 L179.61,178.59 C178.59,178.88 178,179.93 178.29,180.94 C178.58,181.95 179.64,182.53 180.66,182.24 C181.68,181.95 182.27,180.9 181.98,179.89 C181.8,179.26 181.3,178.77 180.66,178.59 L180.66,177.43 C180.66,177 180.86,176.6 181.2,176.33 L186.74,172 L186.72,172.01 Z"/>
									</defs>
								</g>
								<g fill="#f2f2f2" stroke-width="1" stroke="#595959" stroke-linecap="round" stroke-linejoin="round">
									<use xlink:href="#mfid111" fill-rule="evenodd" stroke="none"/>
									<defs>
										<path id="mfid112"
												d="M199.34,149.2 L199.34,145.46 L197.87,144.97 L196.66,144.97 L196.66,148.71 L198.13,149.2 L199.34,149.2 Z M194.56,149.2 L194.56,145.46 L193.09,144.97 L191.88,144.97 L191.88,148.71 L193.35,149.2 L194.56,149.2 Z M189.78,149.2 L189.78,145.46 L188.31,144.97 L187.1,144.97 L187.1,148.71 L188.57,149.2 L189.78,149.2 Z M185,149.2 L185,145.46 L183.53,144.97 L182.33,144.97 L182.33,148.71 L183.79,149.2 L185,149.2 Z M180.22,149.2 L180.22,145.46 L178.75,144.97 L177.55,144.97 L177.55,148.71 L179.01,149.2 L180.22,149.2 Z M175.44,149.2 L175.44,145.46 L173.98,144.97 L172.77,144.97 L172.77,148.71 L174.23,149.2 L175.44,149.2 Z M170.66,149.2 L170.66,145.46 L169.2,144.97 L167.99,144.97 L167.99,148.71 L169.46,149.2 L170.66,149.2 Z M165.88,149.2 L165.88,145.46 L164.42,144.97 L163.21,144.97 L163.21,148.71 L164.68,149.2 L165.88,149.2 Z M161.11,149.2 L161.11,145.46 L159.64,144.97 L158.43,144.97 L158.43,148.71 L159.9,149.2 L161.11,149.2 Z M156.33,149.2 L156.33,145.46 L154.86,144.97 L153.65,144.97 L153.65,148.71 L155.12,149.2 L156.33,149.2 Z M218.45,149.2 L218.45,145.46 L216.98,144.97 L215.78,144.97 L215.78,148.71 L217.24,149.2 L218.45,149.2 Z M213.67,149.2 L213.67,145.46 L212.21,144.97 L211,144.97 L211,148.71 L212.46,149.2 L213.67,149.2 Z M208.89,149.2 L208.89,145.46 L207.43,144.97 L206.22,144.97 L206.22,148.71 L207.69,149.2 L208.89,149.2 Z M204.11,149.2 L204.11,145.46 L202.65,144.97 L201.44,144.97 L201.44,148.71 L202.91,149.2 L204.11,149.2 Z M201.72,155.48 L201.72,151.75 L200.26,151.26 L199.05,151.26 L199.05,154.99 L200.52,155.48 L201.72,155.48 Z M196.95,155.48 L196.95,151.75 L195.48,151.26 L194.27,151.26 L194.27,154.99 L195.74,155.48 L196.95,155.48 Z M192.17,155.48 L192.17,151.75 L190.7,151.26 L189.49,151.26 L189.49,154.99 L190.96,155.48 L192.17,155.48 Z M187.39,155.48 L187.39,151.75 L185.92,151.26 L184.72,151.26 L184.72,154.99 L186.18,155.48 L187.39,155.48 Z M182.61,155.48 L182.61,151.75 L181.14,151.26 L179.94,151.26 L179.94,154.99 L181.4,155.48 L182.61,155.48 Z M177.83,155.48 L177.83,151.75 L176.36,151.26 L175.16,151.26 L175.16,154.99 L176.62,155.48 L177.83,155.48 Z M173.05,155.48 L173.05,151.75 L171.59,151.26 L170.38,151.26 L170.38,154.99 L171.85,155.48 L173.05,155.48 Z M168.27,155.48 L168.27,151.75 L166.81,151.26 L165.6,151.26 L165.6,154.99 L167.07,155.48 L168.27,155.48 Z M163.5,155.48 L163.5,151.75 L162.03,151.26 L160.82,151.26 L160.82,154.99 L162.29,155.48 L163.5,155.48 Z M158.72,155.48 L158.72,151.75 L157.25,151.26 L156.04,151.26 L156.04,154.99 L157.51,155.48 L158.72,155.48 Z M220.84,155.48 L220.84,151.75 L219.37,151.26 L218.17,151.26 L218.17,154.99 L219.63,155.48 L220.84,155.48 Z M216.06,155.48 L216.06,151.75 L214.59,151.26 L213.39,151.26 L213.39,154.99 L214.85,155.48 L216.06,155.48 Z M211.28,155.48 L211.28,151.75 L209.82,151.26 L208.61,151.26 L208.61,154.99 L210.07,155.48 L211.28,155.48 Z M206.5,155.48 L206.5,151.75 L205.04,151.26 L203.83,151.26 L203.83,154.99 L205.3,155.48 L206.5,155.48 Z"/>
									</defs>
								</g>
								<g fill="#333333" stroke-width="1" stroke="#595959" stroke-linecap="round" stroke-linejoin="round">
									<use xlink:href="#mfid112" fill-rule="evenodd" stroke="none"/>
									<defs>
										<path id="mfid113"
												d="M569.64,87.469 L569.64,83.912 L566.68,78.67 L569.64,73.428 L569.64,69.879 L566.68,64.638 L569.64,59.396 L569.64,55.847 L566.68,50.605 L569.64,45.363 L569.64,41.823 L566.68,36.581 L569.64,31.34 L569.64,27.791 L566.68,22.549 L569.64,17.307 L569.64,13.758 L566.68,8.5163 L569.64,3.2745 L569.64,1.5 L260.42,1.5 L260.42,152.01 L571.26,152.01 L571.26,126.03 L569.64,126.03 L566.68,120.78 L569.64,115.54 L569.64,111.98 L566.68,106.74 L569.64,101.5 L569.64,97.952 L566.68,92.711 L569.64,87.469 Z"/>
									</defs>
								</g>
								<g fill="#333333" stroke-width="1" stroke="#333333" stroke-linecap="round" stroke-linejoin="round">
									<use xlink:href="#mfid113" fill="none"/>
								</g>
							</g>
						</g>
						<!-- GetDC -->
						<!-- Released DC -->
						<defs>
							<path id="mfid114"
									d="M551.06,82.209 L555.65,82.209 L555.65,22.209 L551.06,22.209 L551.06,82.209 Z M551.06,147.11 L555.65,147.11 L555.65,87.111 L551.06,87.111 L551.06,147.11 Z"/>
						</defs>
						<mask id="mfid115">
							<use xlink:href="#mfid114" fill-rule="evenodd" fill="white" stroke="none"/>
						</mask>
						<mask id="mfid116" fill="white" stroke="none">
							<g>
								<g mask="url(#mfid115)">
									<use xlink:href="#mfid67"/>
								</g>
							</g>
						</mask>
						<linearGradient id="mfid117" gradientUnits="userSpaceOnUse" x1="-0.10417" y1="6.5053" x2="0.58321"
								y2="6.5053" spreadMethod="repeat"
								gradientTransform="matrix(1, -0, -0, 1, 0.0000000007096, -0.000000017518)">
							<stop offset="0" stop-color="#666666"/>
							<stop offset="1" stop-color="#4d4d4d"/>
						</linearGradient>
						<g mask="url(#mfid116)">
							<g text-rendering="geometricPrecision">
								<g transform="matrix(9.6, 0, 0, -9.6, 551.06, 147.11)">
									<g fill="url(#mfid117)" stroke-width="0.10417" stroke="#333333" stroke-linecap="round"
											stroke-linejoin="round">
										<rect x="-0.10417" y="-0.10417" width="0.68738" height="13.219" stroke="none"/>
									</g>
								</g>
							</g>
						</g>
						<g>
							<g text-rendering="geometricPrecision">
								<g fill="url(#mfid117)" stroke-width="1" stroke="#333333" stroke-linecap="round"
										stroke-linejoin="round">
									<use xlink:href="#mfid114" fill="none"/>
								</g>
							</g>
						</g>
						<!-- GetDC -->
						<!-- Released DC -->
						<defs>
							<path id="mfid118"
									d="M279.66,82.209 L286.56,82.209 L286.56,22.209 L279.66,22.209 L279.66,82.209 Z M279.66,147.11 L286.56,147.11 L286.56,87.111 L279.66,87.111 L279.66,147.11 Z"/>
						</defs>
						<mask id="mfid119">
							<use xlink:href="#mfid118" fill-rule="evenodd" fill="white" stroke="none"/>
						</mask>
						<mask id="mfid120" fill="white" stroke="none">
							<g>
								<g mask="url(#mfid119)">
									<use xlink:href="#mfid67"/>
								</g>
							</g>
						</mask>
						<linearGradient id="mfid121" gradientUnits="userSpaceOnUse" x1="-0.10417" y1="6.5053" x2="0.82302"
								y2="6.5053" spreadMethod="repeat"
								gradientTransform="matrix(1, -0, -0, 1, 0.0000000029283, 0.0000000077514)">
							<stop offset="0" stop-color="#4d4d4d"/>
							<stop offset="1" stop-color="#666666"/>
						</linearGradient>
						<g mask="url(#mfid120)">
							<g text-rendering="geometricPrecision">
								<g transform="matrix(9.6, 0, 0, -9.6, 279.66, 147.11)">
									<g fill="url(#mfid121)" stroke-width="0.10417" stroke="#333333" stroke-linecap="round"
											stroke-linejoin="round">
										<rect x="-0.10417" y="-0.10417" width="0.92719" height="13.219" stroke="none"/>
									</g>
								</g>
							</g>
						</g>
						<g>
							<g text-rendering="geometricPrecision">
								<g fill="url(#mfid121)" stroke-width="1" stroke="#4d4d4d" stroke-linecap="round"
										stroke-linejoin="round">
									<use xlink:href="#mfid118" fill="none"/>
								</g>
							</g>
						</g>
						<!-- GetDC -->
						<!-- Released DC -->
						<defs>
							<path id="mfid122"
									d="M286.56,82.209 L551.06,82.209 L551.06,22.209 L286.56,22.209 L286.56,82.209 Z M286.56,147.11 L551.06,147.11 L551.06,87.111 L286.56,87.111 L286.56,147.11 Z"/>
						</defs>
						<mask id="mfid123">
							<use xlink:href="#mfid122" fill-rule="evenodd" fill="white" stroke="none"/>
						</mask>
						<mask id="mfid124" fill="white" stroke="none">
							<g>
								<g mask="url(#mfid123)">
									<use xlink:href="#mfid67"/>
								</g>
							</g>
						</mask>
						<linearGradient id="mfid125" gradientUnits="userSpaceOnUse" x1="-0.10417" y1="6.5053" x2="27.656"
								y2="6.5053" spreadMethod="repeat"
								gradientTransform="matrix(1, -0, -0, 1, -0.000000015398, 0.0000000010743)">
							<stop offset="0" stop-color="#666666"/>
							<stop offset="0.5" stop-color="#3f3f3f"/>
							<stop offset="1" stop-color="#666666"/>
						</linearGradient>
						<g mask="url(#mfid124)">
							<g text-rendering="geometricPrecision">
								<g transform="matrix(9.6, 0, 0, -9.6, 286.56, 147.11)">
									<g fill="url(#mfid125)" stroke-width="0.10417" stroke="#4d4d4d" stroke-linecap="round"
											stroke-linejoin="round">
										<rect x="-0.10417" y="-0.10417" width="27.76" height="13.219" stroke="none"/>
									</g>
								</g>
							</g>
						</g>
						<g>
							<g text-rendering="geometricPrecision">
								<g fill="url(#mfid125)" stroke-width="1" stroke="#666666" stroke-linecap="round"
										stroke-linejoin="round">
									<use xlink:href="#mfid122" fill="none"/>
									<defs>
										<path id="mfid126"
												d="M320.57,72.334 L498.82,72.334 L498.82,32.084 L320.57,32.084 L320.57,72.334 Z M320.57,137.24 L498.82,137.24 L498.82,96.986 L320.57,96.986 L320.57,137.24 Z"/>
									</defs>
								</g>
								<g fill="#b3b3b3" stroke-width="1" stroke="#666666" stroke-linecap="round" stroke-linejoin="round">
									<use xlink:href="#mfid126" fill-rule="evenodd" stroke="none"/>
								</g>
								<g fill="#b3b3b3" stroke-width="1" stroke="#333333" stroke-linecap="round" stroke-linejoin="round">
									<use xlink:href="#mfid126" fill="none"/>
									<defs>
										<path id="mfid127"
												d="M332.48,72.332 L332.48,66.503 L326.52,63.139 L320.57,66.503 L320.57,72.332 L332.48,72.332 Z M346.34,72.332 L346.34,66.503 L340.38,63.139 L334.43,66.503 L334.43,72.332 L346.34,72.332 Z M360.21,72.332 L360.21,66.503 L354.25,63.139 L348.3,66.503 L348.3,72.332 L360.21,72.332 Z M374.07,72.332 L374.07,66.503 L368.11,63.139 L362.16,66.503 L362.16,72.332 L374.07,72.332 Z M387.93,72.332 L387.93,66.503 L381.98,63.139 L376.02,66.503 L376.02,72.332 L387.93,72.332 Z M401.79,72.332 L401.79,66.503 L395.84,63.139 L389.88,66.503 L389.88,72.332 L401.79,72.332 Z M415.64,72.332 L415.64,66.503 L409.69,63.139 L403.73,66.503 L403.73,72.332 L415.64,72.332 Z M429.5,72.332 L429.5,66.503 L423.55,63.139 L417.59,66.503 L417.59,72.332 L429.5,72.332 Z M443.37,72.332 L443.37,66.503 L437.41,63.139 L431.46,66.503 L431.46,72.332 L443.37,72.332 Z M457.24,72.332 L457.24,66.503 L451.28,63.139 L445.32,66.503 L445.32,72.332 L457.24,72.332 Z M471.1,72.332 L471.1,66.503 L465.14,63.139 L459.19,66.503 L459.19,72.332 L471.1,72.332 Z M484.96,72.332 L484.96,66.503 L479,63.139 L473.05,66.503 L473.05,72.332 L484.96,72.332 Z M498.82,72.332 L498.82,66.503 L492.86,63.139 L486.91,66.503 L486.91,72.332 L498.82,72.332 Z M498.82,51.917 L493.84,54.731 L493.84,61.46 L498.82,64.274 L498.82,51.917 Z M493.84,32.086 L493.84,37.914 L498.82,40.728 L498.82,32.086 L493.84,32.086 Z M479.98,32.086 L479.98,37.914 L485.93,41.279 L491.89,37.914 L491.89,32.086 L479.98,32.086 Z M466.12,32.086 L466.12,37.914 L472.07,41.279 L478.03,37.914 L478.03,32.086 L466.12,32.086 Z M452.26,32.086 L452.26,37.914 L458.21,41.279 L464.17,37.914 L464.17,32.086 L452.26,32.086 Z M438.39,32.086 L438.39,37.914 L444.34,41.279 L450.3,37.914 L450.3,32.086 L438.39,32.086 Z M424.52,32.086 L424.52,37.914 L430.48,41.279 L436.44,37.914 L436.44,32.086 L424.52,32.086 Z M410.66,32.086 L410.66,37.914 L416.62,41.279 L422.57,37.914 L422.57,32.086 L410.66,32.086 Z M396.81,32.086 L396.81,37.914 L402.77,41.279 L408.72,37.914 L408.72,32.086 L396.81,32.086 Z M382.95,32.086 L382.95,37.914 L388.91,41.279 L394.86,37.914 L394.86,32.086 L382.95,32.086 Z M369.09,32.086 L369.09,37.914 L375.04,41.279 L381,37.914 L381,32.086 L369.09,32.086 Z M355.23,32.086 L355.23,37.914 L361.18,41.279 L367.14,37.914 L367.14,32.086 L355.23,32.086 Z M341.36,32.086 L341.36,37.914 L347.31,41.279 L353.27,37.914 L353.27,32.086 L341.36,32.086 Z M327.5,32.086 L327.5,37.914 L333.45,41.279 L339.41,37.914 L339.41,32.086 L327.5,32.086 Z M320.57,40.728 L325.55,37.914 L325.55,32.086 L320.57,32.086 L320.57,40.728 Z M320.57,64.274 L325.55,61.46 L325.55,54.731 L320.57,51.917 L320.57,64.274 Z M498.82,42.958 L492.86,39.593 L486.91,42.958 L486.91,49.687 L492.86,53.052 L498.82,49.687 L498.82,42.958 Z M320.57,49.687 L326.52,53.052 L332.48,49.687 L332.48,42.958 L326.52,39.593 L320.57,42.958 L320.57,49.687 Z M423.55,53.052 L429.5,49.687 L429.5,42.958 L423.55,39.593 L417.59,42.958 L417.59,49.687 L423.55,53.052 Z M381.98,53.052 L387.93,49.687 L387.93,42.958 L381.98,39.593 L376.02,42.958 L376.02,49.687 L381.98,53.052 Z M395.84,53.052 L401.79,49.687 L401.79,42.958 L395.84,39.593 L389.88,42.958 L389.88,49.687 L395.84,53.052 Z M409.69,53.052 L415.64,49.687 L415.64,42.958 L409.69,39.593 L403.73,42.958 L403.73,49.687 L409.69,53.052 Z M375.04,64.825 L381,61.46 L381,54.731 L375.04,51.366 L369.09,54.731 L369.09,61.46 L375.04,64.825 Z M402.77,64.825 L408.72,61.46 L408.72,54.731 L402.77,51.366 L396.81,54.731 L396.81,61.46 L402.77,64.825 Z M416.62,64.825 L422.57,61.46 L422.57,54.731 L416.62,51.366 L410.66,54.731 L410.66,61.46 L416.62,64.825 Z M388.91,64.825 L394.86,61.46 L394.86,54.731 L388.91,51.366 L382.95,54.731 L382.95,61.46 L388.91,64.825 Z M368.11,53.052 L374.07,49.687 L374.07,42.958 L368.11,39.593 L362.16,42.958 L362.16,49.687 L368.11,53.052 Z M361.18,64.825 L367.14,61.46 L367.14,54.731 L361.18,51.366 L355.23,54.731 L355.23,61.46 L361.18,64.825 Z M354.25,53.052 L360.21,49.687 L360.21,42.958 L354.25,39.593 L348.3,42.958 L348.3,49.687 L354.25,53.052 Z M347.31,64.825 L353.27,61.46 L353.27,54.731 L347.31,51.366 L341.36,54.731 L341.36,61.46 L347.31,64.825 Z M340.38,53.052 L346.34,49.687 L346.34,42.958 L340.38,39.593 L334.43,42.958 L334.43,49.687 L340.38,53.052 Z M333.45,64.825 L339.41,61.46 L339.41,54.731 L333.45,51.366 L327.5,54.731 L327.5,61.46 L333.45,64.825 Z M479,53.052 L484.96,49.687 L484.96,42.958 L479,39.593 L473.05,42.958 L473.05,49.687 L479,53.052 Z M472.07,64.825 L478.03,61.46 L478.03,54.731 L472.07,51.366 L466.12,54.731 L466.12,61.46 L472.07,64.825 Z M485.93,64.825 L491.89,61.46 L491.89,54.731 L485.93,51.366 L479.98,54.731 L479.98,61.46 L485.93,64.825 Z M465.14,53.052 L471.1,49.687 L471.1,42.958 L465.14,39.593 L459.19,42.958 L459.19,49.687 L465.14,53.052 Z M458.21,64.825 L464.17,61.46 L464.17,54.731 L458.21,51.366 L452.26,54.731 L452.26,61.46 L458.21,64.825 Z M451.28,53.052 L457.24,49.687 L457.24,42.958 L451.28,39.593 L445.32,42.958 L445.32,49.687 L451.28,53.052 Z M444.34,64.825 L450.3,61.46 L450.3,54.731 L444.34,51.366 L438.39,54.731 L438.39,61.46 L444.34,64.825 Z M437.41,53.052 L443.37,49.687 L443.37,42.958 L437.41,39.593 L431.46,42.958 L431.46,49.687 L437.41,53.052 Z M430.48,64.825 L436.44,61.46 L436.44,54.731 L430.48,51.366 L424.52,54.731 L424.52,61.46 L430.48,64.825 Z M332.48,137.23 L332.48,131.41 L326.52,128.04 L320.57,131.41 L320.57,137.23 L332.48,137.23 Z M346.34,137.23 L346.34,131.41 L340.38,128.04 L334.43,131.41 L334.43,137.23 L346.34,137.23 Z M360.21,137.23 L360.21,131.41 L354.25,128.04 L348.3,131.41 L348.3,137.23 L360.21,137.23 Z M374.07,137.23 L374.07,131.41 L368.11,128.04 L362.16,131.41 L362.16,137.23 L374.07,137.23 Z M387.93,137.23 L387.93,131.41 L381.98,128.04 L376.02,131.41 L376.02,137.23 L387.93,137.23 Z M401.79,137.23 L401.79,131.41 L395.84,128.04 L389.88,131.41 L389.88,137.23 L401.79,137.23 Z M415.64,137.23 L415.64,131.41 L409.69,128.04 L403.73,131.41 L403.73,137.23 L415.64,137.23 Z M429.5,137.23 L429.5,131.41 L423.55,128.04 L417.59,131.41 L417.59,137.23 L429.5,137.23 Z M443.37,137.23 L443.37,131.41 L437.41,128.04 L431.46,131.41 L431.46,137.23 L443.37,137.23 Z M457.24,137.23 L457.24,131.41 L451.28,128.04 L445.32,131.41 L445.32,137.23 L457.24,137.23 Z M471.1,137.23 L471.1,131.41 L465.14,128.04 L459.19,131.41 L459.19,137.23 L471.1,137.23 Z M484.96,137.23 L484.96,131.41 L479,128.04 L473.05,131.41 L473.05,137.23 L484.96,137.23 Z M498.82,137.23 L498.82,131.41 L492.86,128.04 L486.91,131.41 L486.91,137.23 L498.82,137.23 Z M498.82,116.82 L493.84,119.63 L493.84,126.36 L498.82,129.18 L498.82,116.82 Z M493.84,96.988 L493.84,102.82 L498.82,105.63 L498.82,96.988 L493.84,96.988 Z M479.98,96.988 L479.98,102.82 L485.93,106.18 L491.89,102.82 L491.89,96.988 L479.98,96.988 Z M466.12,96.988 L466.12,102.82 L472.07,106.18 L478.03,102.82 L478.03,96.988 L466.12,96.988 Z M452.26,96.988 L452.26,102.82 L458.21,106.18 L464.17,102.82 L464.17,96.988 L452.26,96.988 Z M438.39,96.988 L438.39,102.82 L444.34,106.18 L450.3,102.82 L450.3,96.988 L438.39,96.988 Z M424.52,96.988 L424.52,102.82 L430.48,106.18 L436.44,102.82 L436.44,96.988 L424.52,96.988 Z M410.66,96.988 L410.66,102.82 L416.62,106.18 L422.57,102.82 L422.57,96.988 L410.66,96.988 Z M396.81,96.988 L396.81,102.82 L402.77,106.18 L408.72,102.82 L408.72,96.988 L396.81,96.988 Z M382.95,96.988 L382.95,102.82 L388.91,106.18 L394.86,102.82 L394.86,96.988 L382.95,96.988 Z M369.09,96.988 L369.09,102.82 L375.04,106.18 L381,102.82 L381,96.988 L369.09,96.988 Z M355.23,96.988 L355.23,102.82 L361.18,106.18 L367.14,102.82 L367.14,96.988 L355.23,96.988 Z M341.36,96.988 L341.36,102.82 L347.31,106.18 L353.27,102.82 L353.27,96.988 L341.36,96.988 Z M327.5,96.988 L327.5,102.82 L333.45,106.18 L339.41,102.82 L339.41,96.988 L327.5,96.988 Z M320.57,105.63 L325.55,102.82 L325.55,96.988 L320.57,96.988 L320.57,105.63 Z M320.57,129.18 L325.55,126.36 L325.55,119.63 L320.57,116.82 L320.57,129.18 Z M498.82,107.86 L492.86,104.5 L486.91,107.86 L486.91,114.59 L492.86,117.95 L498.82,114.59 L498.82,107.86 Z M320.57,114.59 L326.52,117.95 L332.48,114.59 L332.48,107.86 L326.52,104.5 L320.57,107.86 L320.57,114.59 Z M423.55,117.95 L429.5,114.59 L429.5,107.86 L423.55,104.5 L417.59,107.86 L417.59,114.59 L423.55,117.95 Z M381.98,117.95 L387.93,114.59 L387.93,107.86 L381.98,104.5 L376.02,107.86 L376.02,114.59 L381.98,117.95 Z M395.84,117.95 L401.79,114.59 L401.79,107.86 L395.84,104.5 L389.88,107.86 L389.88,114.59 L395.84,117.95 Z M409.69,117.95 L415.64,114.59 L415.64,107.86 L409.69,104.5 L403.73,107.86 L403.73,114.59 L409.69,117.95 Z M375.04,129.73 L381,126.36 L381,119.63 L375.04,116.27 L369.09,119.63 L369.09,126.36 L375.04,129.73 Z M402.77,129.73 L408.72,126.36 L408.72,119.63 L402.77,116.27 L396.81,119.63 L396.81,126.36 L402.77,129.73 Z M416.62,129.73 L422.57,126.36 L422.57,119.63 L416.62,116.27 L410.66,119.63 L410.66,126.36 L416.62,129.73 Z M388.91,129.73 L394.86,126.36 L394.86,119.63 L388.91,116.27 L382.95,119.63 L382.95,126.36 L388.91,129.73 Z M368.11,117.95 L374.07,114.59 L374.07,107.86 L368.11,104.5 L362.16,107.86 L362.16,114.59 L368.11,117.95 Z M361.18,129.73 L367.14,126.36 L367.14,119.63 L361.18,116.27 L355.23,119.63 L355.23,126.36 L361.18,129.73 Z M354.25,117.95 L360.21,114.59 L360.21,107.86 L354.25,104.5 L348.3,107.86 L348.3,114.59 L354.25,117.95 Z M347.31,129.73 L353.27,126.36 L353.27,119.63 L347.31,116.27 L341.36,119.63 L341.36,126.36 L347.31,129.73 Z M340.38,117.95 L346.34,114.59 L346.34,107.86 L340.38,104.5 L334.43,107.86 L334.43,114.59 L340.38,117.95 Z M333.45,129.73 L339.41,126.36 L339.41,119.63 L333.45,116.27 L327.5,119.63 L327.5,126.36 L333.45,129.73 Z M479,117.95 L484.96,114.59 L484.96,107.86 L479,104.5 L473.05,107.86 L473.05,114.59 L479,117.95 Z M472.07,129.73 L478.03,126.36 L478.03,119.63 L472.07,116.27 L466.12,119.63 L466.12,126.36 L472.07,129.73 Z M485.93,129.73 L491.89,126.36 L491.89,119.63 L485.93,116.27 L479.98,119.63 L479.98,126.36 L485.93,129.73 Z M465.14,117.95 L471.1,114.59 L471.1,107.86 L465.14,104.5 L459.19,107.86 L459.19,114.59 L465.14,117.95 Z M458.21,129.73 L464.17,126.36 L464.17,119.63 L458.21,116.27 L452.26,119.63 L452.26,126.36 L458.21,129.73 Z M451.28,117.95 L457.24,114.59 L457.24,107.86 L451.28,104.5 L445.32,107.86 L445.32,114.59 L451.28,117.95 Z M444.34,129.73 L450.3,126.36 L450.3,119.63 L444.34,116.27 L438.39,119.63 L438.39,126.36 L444.34,129.73 Z M437.41,117.95 L443.37,114.59 L443.37,107.86 L437.41,104.5 L431.46,107.86 L431.46,114.59 L437.41,117.95 Z M430.48,129.73 L436.44,126.36 L436.44,119.63 L430.48,116.27 L424.52,119.63 L424.52,126.36 L430.48,129.73 Z"/>
									</defs>
								</g>
								<g fill="#1a1a1a" stroke-width="1" stroke="#333333" stroke-linecap="round" stroke-linejoin="round">
									<use xlink:href="#mfid127" fill-rule="evenodd" stroke="none"/>
									<defs>
										<path id="mfid128"
												d="M450.74,72.334 L450.74,32.084 L442.46,32.084 L442.46,72.334 L450.74,72.334 Z M450.74,137.24 L450.74,96.986 L442.46,96.986 L442.46,137.24 L450.74,137.24 Z"/>
									</defs>
								</g>
								<g fill="#3f3f3f" stroke-width="1" stroke="#333333" stroke-linecap="round" stroke-linejoin="round">
									<use xlink:href="#mfid128" fill-rule="evenodd" stroke="none"/>
									<use xlink:href="#mfid128" fill="none"/>
									<defs>
										<path id="mfid129"
												d="M458.8,63.762 C457.03,56.162 457.03,48.256 458.8,40.656 C459.08,39.418 458.31,38.182 457.08,37.894 C456.91,37.854 456.73,37.834 456.56,37.834 L436.65,37.834 C435.38,37.834 434.35,38.864 434.35,40.134 C434.35,40.31 434.37,40.485 434.41,40.656 C436.18,48.256 436.18,56.162 434.41,63.762 C434.12,64.999 434.89,66.236 436.12,66.524 C436.3,66.564 436.47,66.584 436.65,66.584 L456.56,66.584 C457.83,66.584 458.86,65.554 458.86,64.284 C458.86,64.108 458.84,63.933 458.8,63.762 Z M458.8,128.66 C457.03,121.06 457.03,113.16 458.8,105.56 C459.08,104.32 458.31,103.08 457.08,102.8 C456.91,102.76 456.73,102.74 456.56,102.74 L436.65,102.74 C435.38,102.74 434.35,103.77 434.35,105.04 C434.35,105.21 434.37,105.39 434.41,105.56 C436.18,113.16 436.18,121.06 434.41,128.66 C434.12,129.9 434.89,131.14 436.12,131.43 C436.3,131.47 436.47,131.49 436.65,131.49 L456.56,131.49 C457.83,131.49 458.86,130.46 458.86,129.19 C458.86,129.01 458.84,128.84 458.8,128.66 Z"/>
									</defs>
								</g>
								<g fill="#4d4d4d" stroke-width="1" stroke="#333333" stroke-linecap="round" stroke-linejoin="round">
									<use xlink:href="#mfid129" fill-rule="evenodd" stroke="none"/>
									<use xlink:href="#mfid129" fill="none"/>
									<defs>
										<path id="mfid130"
												d="M279.66,82.209 L555.65,82.209 L555.65,22.209 L279.66,22.209 L279.66,82.209 Z M279.66,147.11 L555.65,147.11 L555.65,87.111 L279.66,87.111 L279.66,147.11 Z"/>
									</defs>
								</g>
								<g fill="#4d4d4d" stroke-width="1" stroke="#1a1a1a" stroke-linecap="round" stroke-linejoin="round">
									<use xlink:href="#mfid130" fill="none"/>
								</g>
							</g>
						</g>
					</g>
				</svg>
				<rect x="0" y="3.97756" width="62.0675" height="15.9752" class="st4"/>
			</g>
		</g>
	</g>
</svg>
